<svg aria-hidden="true" style="position: absolute; width: 0; height: 0; overflow: hidden;" version="1.1" xmlns="http://www.w3.org/2000/svg" xmlns:xlink="http://www.w3.org/1999/xlink">
<defs>
<symbol id="icon-play" viewBox="0 0 25 32">
<path fill="#fff" style="fill: var(--color1, #fff)" d="M0 0l24.889 16-24.889 16v-32z"></path>
</symbol>
<symbol id="icon-slick-dot-active" viewBox="0 0 29 32">
<path fill="#1b63f0" style="fill: var(--color2, #1b63f0)" d="M29.091 16.291c0 8.033-6.512 14.545-14.545 14.545s-14.545-6.512-14.545-14.545c0-8.033 6.512-14.545 14.545-14.545s14.545 6.512 14.545 14.545z"></path>
</symbol>
<symbol id="icon-slick-dot-default" viewBox="0 0 29 32">
<path fill="#bad1ff" style="fill: var(--color3, #bad1ff)" d="M29.091 16.291c0 8.033-6.512 14.545-14.545 14.545s-14.545-6.512-14.545-14.545c0-8.033 6.512-14.545 14.545-14.545s14.545 6.512 14.545 14.545z"></path>
</symbol>
<symbol id="icon-slider-arrow" viewBox="7 5 18 18">
<path fill="#fff" style="fill: var(--color1, #fff)" d="M16 5.333c4.909 0 8.889 3.98 8.889 8.889s-3.98 8.889-8.889 8.889c-4.909 0-8.889-3.98-8.889-8.889s3.98-8.889 8.889-8.889z"></path>
<path fill="none" stroke="#64be97" style="stroke: var(--color4, #64be97)" stroke-linejoin="round" stroke-linecap="round" stroke-miterlimit="4" stroke-width="0.8889" d="M14.667 16.889l2.667-2.667-2.667-2.667"></path>
</symbol>
<symbol id="icon-briefcase" viewBox="0 0 32 32">
<path fill="none" stroke="#fff" style="stroke: var(--color1, #fff)" stroke-linejoin="round" stroke-linecap="round" stroke-miterlimit="4" stroke-width="2.6667" d="M26.667 9.333h-21.333c-1.473 0-2.667 1.194-2.667 2.667v13.333c0 1.473 1.194 2.667 2.667 2.667h21.333c1.473 0 2.667-1.194 2.667-2.667v-13.333c0-1.473-1.194-2.667-2.667-2.667z"></path>
<path fill="none" stroke="#fff" style="stroke: var(--color1, #fff)" stroke-linejoin="round" stroke-linecap="round" stroke-miterlimit="4" stroke-width="2.6667" d="M21.333 28v-21.333c0-0.707-0.281-1.386-0.781-1.886s-1.178-0.781-1.886-0.781h-5.333c-0.707 0-1.386 0.281-1.886 0.781s-0.781 1.178-0.781 1.886v21.333"></path>
</symbol>
<symbol id="icon-calendar" viewBox="0 0 32 32">
<path fill="none" stroke="#838383" style="stroke: var(--color5, #838383)" stroke-linejoin="round" stroke-linecap="round" stroke-miterlimit="4" stroke-width="2.4" d="M25.333 5.333h-18.667c-1.473 0-2.667 1.194-2.667 2.667v18.667c0 1.473 1.194 2.667 2.667 2.667h18.667c1.473 0 2.667-1.194 2.667-2.667v-18.667c0-1.473-1.194-2.667-2.667-2.667z"></path>
<path fill="none" stroke="#838383" style="stroke: var(--color5, #838383)" stroke-linejoin="round" stroke-linecap="round" stroke-miterlimit="4" stroke-width="2.4" d="M21.333 2.667v5.333"></path>
<path fill="none" stroke="#838383" style="stroke: var(--color5, #838383)" stroke-linejoin="round" stroke-linecap="round" stroke-miterlimit="4" stroke-width="2.4" d="M10.667 2.667v5.333"></path>
<path fill="none" stroke="#838383" style="stroke: var(--color5, #838383)" stroke-linejoin="round" stroke-linecap="round" stroke-miterlimit="4" stroke-width="2.4" d="M4 13.333h24"></path>
</symbol>
<symbol id="icon-clock" viewBox="0 0 32 32">
<path fill="none" stroke="#838383" style="stroke: var(--color5, #838383)" stroke-linejoin="round" stroke-linecap="round" stroke-miterlimit="4" stroke-width="2.4" d="M16 29.333c7.364 0 13.333-5.969 13.333-13.333s-5.97-13.333-13.333-13.333c-7.364 0-13.333 5.97-13.333 13.333s5.97 13.333 13.333 13.333z"></path>
<path fill="none" stroke="#838383" style="stroke: var(--color5, #838383)" stroke-linejoin="round" stroke-linecap="round" stroke-miterlimit="4" stroke-width="2.4" d="M16 8v8l5.333 2.667"></path>
</symbol>
<symbol id="icon-map" viewBox="0 0 32 32">
<path fill="none" stroke="#838383" style="stroke: var(--color5, #838383)" stroke-linejoin="round" stroke-linecap="round" stroke-miterlimit="4" stroke-width="2.4" d="M28 13.333c0 9.333-12 17.333-12 17.333s-12-8-12-17.333c0-3.183 1.264-6.235 3.515-8.485s5.303-3.515 8.485-3.515c3.183 0 6.235 1.264 8.485 3.515s3.515 5.303 3.515 8.485z"></path>
<path fill="none" stroke="#838383" style="stroke: var(--color5, #838383)" stroke-linejoin="round" stroke-linecap="round" stroke-miterlimit="4" stroke-width="2.4" d="M16 17.333c2.209 0 4-1.791 4-4s-1.791-4-4-4c-2.209 0-4 1.791-4 4s1.791 4 4 4z"></path>
</symbol>
<symbol id="icon-certificate-book" viewBox="0 0 32 32">
<path fill="#1b63f0" style="fill: var(--color2, #1b63f0)" d="M9.008 2.608h16.896c0.48 0 0.896-0.384 0.896-0.896s-0.416-0.864-0.896-0.864h-16.896c-1.952 0-3.552 1.44-3.776 3.328-0.032 0.064-0.032 0.16-0.032 0.256v23.936c0 1.536 1.248 2.784 2.784 2.784h17.312c0.64 0 1.184-0.544 1.184-1.184v-22.048c0-0.64-0.544-1.184-1.184-1.184h-16.288c-1.12 0-2.080-0.96-2.080-2.080s0.96-2.048 2.080-2.048zM9.008 8.496h15.712v20.896h-16.736c-0.576 0-1.024-0.448-1.024-1.024v-20.48c0.576 0.384 1.28 0.608 2.048 0.608z"></path>
<path fill="#1b63f0" style="fill: var(--color2, #1b63f0)" d="M20.048 25.776h-8.128c-0.48 0-0.896 0.384-0.896 0.896s0.384 0.896 0.896 0.896h8.096c0.48 0 0.896-0.384 0.896-0.896s-0.384-0.896-0.864-0.896z"></path>
<path fill="#1b63f0" style="fill: var(--color2, #1b63f0)" d="M11.088 14.16h9.76c0.352 0 0.64-0.288 0.64-0.64v-1.92c0-0.352-0.288-0.64-0.64-0.64h-9.76c-0.352 0-0.64 0.288-0.64 0.64v1.92c0 0.352 0.288 0.64 0.64 0.64z"></path>
</symbol>
<symbol id="icon-certificate-devider" viewBox="0 0 32 32">
<path fill="#1b63f0" style="fill: var(--color2, #1b63f0)" d="M27.135 25.648l-3.584-7.936c1.216-1.12 2.176-2.528 2.816-4.128 0.16-0.448-0.064-0.96-0.512-1.152s-0.96 0.064-1.152 0.512c-0.448 1.152-1.12 2.208-1.952 3.072l-2.432-5.408c0.384-0.704 0.576-1.472 0.576-2.304 0-2.368-1.664-4.32-3.872-4.8v-1.536c0-0.544-0.448-0.992-0.992-0.992s-0.992 0.448-0.992 0.992v1.536c-2.208 0.48-3.872 2.432-3.872 4.8 0 0.832 0.224 1.632 0.576 2.304l-2.432 5.408c-0.832-0.864-1.472-1.888-1.952-3.072-0.192-0.448-0.672-0.672-1.152-0.512-0.448 0.192-0.672 0.672-0.512 1.152 0.64 1.632 1.6 3.008 2.816 4.128l-3.584 7.936-0.128 4.288c0 0.416 0.224 0.8 0.608 0.992 0.128 0.064 0.288 0.096 0.416 0.096 0.256 0 0.512-0.096 0.704-0.288l3.104-2.944 3.392-7.52c0.96 0.256 1.952 0.416 2.976 0.416s2.016-0.16 2.976-0.416l3.392 7.52 3.104 2.944c0.192 0.192 0.448 0.288 0.704 0.288 0.128 0 0.288-0.032 0.416-0.096 0.384-0.16 0.64-0.544 0.608-0.992l-0.064-4.288zM14.431 12.912l-2.304 5.12c-0.512-0.224-0.992-0.512-1.472-0.832l2.304-5.088c0.448 0.352 0.928 0.608 1.472 0.8zM19.103 12.112l2.304 5.088c-0.448 0.32-0.96 0.608-1.472 0.832l-2.304-5.12c0.544-0.192 1.024-0.448 1.472-0.8zM16.031 5.168c1.728 0 3.136 1.408 3.136 3.136s-1.408 3.136-3.136 3.136c-1.728 0-3.136-1.408-3.136-3.136s1.408-3.136 3.136-3.136zM8.223 26.736l-1.6 1.504 0.064-2.176 3.264-7.232c0.48 0.32 0.96 0.576 1.472 0.8l-3.2 7.104zM16.031 18.896c-0.768 0-1.504-0.096-2.24-0.256l2.24-4.96 2.24 4.96c-0.736 0.16-1.472 0.256-2.24 0.256zM23.839 26.736l-3.2-7.072c0.512-0.224 0.992-0.512 1.472-0.8l3.264 7.2 0.064 2.176-1.6-1.504z"></path>
</symbol>
<symbol id="icon-certificate-microscope" viewBox="0 0 32 32">
<path fill="#1b63f0" style="fill: var(--color2, #1b63f0)" d="M6.208 30.87h21.984c0-0.928-4.32-1.696-9.856-1.792v-1.952c0.032 0 0.064 0 0.096 0 5.248-0.64 9.248-5.12 9.248-10.464 0-2.976-1.28-5.824-3.488-7.808-0.256-0.224-0.544-0.448-0.8-0.672l1.376-2.496c0.512-0.928 0.16-2.080-0.768-2.592l-3.136-1.728c-0.928-0.512-2.080-0.16-2.592 0.768l-6.144 11.296c-0.512 0.928-0.16 2.080 0.768 2.592l3.136 1.728c0.288 0.128 0.608 0.192 0.928 0.192 0.192 0 0.352-0.032 0.544-0.064 0.48-0.128 0.896-0.48 1.12-0.928l3.904-7.168c0.16 0.128 0.32 0.256 0.48 0.416 1.824 1.664 2.88 4.032 2.88 6.496 0 4.416-3.328 8.16-7.712 8.672-0.768 0.096-1.536 0.064-2.304-0.032-2.432-0.352-4.544-1.696-5.888-3.68h8.384c0.48 0 0.896-0.384 0.896-0.896s-0.384-0.896-0.864-0.896h-13.696c-0.48 0-0.896 0.384-0.896 0.896s0.384 0.896 0.896 0.896h3.232c1.568 2.912 4.384 4.928 7.712 5.44 0.032 0 0.096 0 0.128 0v2.016c-5.408 0.064-9.568 0.832-9.568 1.76zM17.088 16.118c-0.032 0.032-0.064 0.064-0.096 0.064s-0.064 0-0.096 0l-3.136-1.728c-0.064-0.032-0.096-0.128-0.064-0.192l6.112-11.232c0.032-0.064 0.128-0.096 0.192-0.064l3.136 1.728c0.064 0.032 0.096 0.128 0.064 0.192l-6.112 11.232z"></path>
</symbol>
<symbol id="icon-certificate-scroll" viewBox="0 0 32 32">
<path fill="#1b63f0" style="fill: var(--color2, #1b63f0)" d="M29.705 18.096h-3.584v-13.408c0-2.080-1.696-3.808-3.776-3.808h-0.032c-0.128 0-0.288 0-0.416 0h-15.456c-3.104 0-5.664 2.528-5.664 5.664v2.112c0 0.896 0.736 1.632 1.632 1.632h3.136v14.624c0 1.696 1.376 3.104 3.104 3.104h3.808v2.048c0 0.384 0.224 0.768 0.576 0.928 0.16 0.096 0.32 0.128 0.512 0.128s0.416-0.064 0.576-0.192l2.24-1.504 2.24 1.504c0.32 0.224 0.736 0.224 1.088 0.064 0.352-0.192 0.576-0.544 0.576-0.928v-2.080c0.064 0.032 0.16 0.032 0.224 0.032h7.392c0.128 0 0.224 0 0.32-0.032h0.064c0.064 0 0.16-0.032 0.256-0.032 0.032 0 0.064 0 0.064 0 0.032 0 0.064 0 0.064-0.032 0.064 0 0.096-0.032 0.16-0.032 0.032 0 0.096-0.032 0.128-0.032s0.064 0 0.064-0.032c0.096-0.032 0.192-0.064 0.256-0.096 0.032 0 0.064-0.032 0.064-0.032 0.032 0 0.032-0.032 0.064-0.032 0.096-0.032 0.16-0.096 0.256-0.128 0.064-0.032 0.16-0.096 0.224-0.16 0 0 0.032 0 0.032-0.032l0.064-0.064c0.064-0.064 0.128-0.096 0.192-0.16 0.096-0.096 0.224-0.192 0.288-0.32 0.064-0.064 0.16-0.192 0.224-0.32 0-0.032 0.032-0.032 0.032-0.064s0.032-0.032 0.032-0.064c0-0.032 0.032-0.032 0.032-0.064 0.032-0.064 0.064-0.096 0.096-0.16s0.064-0.128 0.096-0.192c0-0.032 0.032-0.064 0.032-0.096 0.064-0.192 0.128-0.384 0.16-0.576 0.032-0.224 0.064-0.448 0.064-0.704v-4.832c0.128-0.896-0.608-1.632-1.504-1.632zM2.537 6.512c0-2.144 1.76-3.904 3.904-3.904h12.32c-0.448 0.64-0.704 1.44-0.704 2.272v3.584h-15.52v-1.952zM16.329 23.76c-1.888 0-3.424-1.536-3.424-3.424s1.536-3.392 3.424-3.392c1.888 0 3.424 1.536 3.424 3.424s-1.536 3.392-3.424 3.392zM16.329 27.248l-2.144 1.408v-3.584c0.64 0.288 1.376 0.48 2.144 0.48s1.472-0.16 2.144-0.48v3.616l-2.144-1.44zM20.233 26.224v-2.464c0.8-0.896 1.28-2.080 1.28-3.392 0-2.848-2.304-5.184-5.184-5.184-2.848 0-5.184 2.304-5.184 5.184 0 1.28 0.48 2.464 1.28 3.392v2.432h-3.808c-0.736 0-1.344-0.608-1.344-1.344v-14.624h10.88c0.896 0 1.632-0.736 1.632-1.632v-3.68c0-1.184 0.928-2.208 2.112-2.272h0.416c1.12 0 2.048 0.928 2.048 2.048v19.808c0 0.608 0.16 1.216 0.448 1.728h-4.352c-0.096-0.032-0.16-0.032-0.224 0zM29.513 24.816c-0.032 0.096-0.064 0.224-0.096 0.32-0.032 0.064-0.064 0.096-0.064 0.16l-0.064 0.096c-0.032 0.032-0.064 0.096-0.096 0.128l-0.032 0.032c-0.032 0.032-0.064 0.096-0.128 0.128-0.032 0.032-0.064 0.064-0.128 0.096l-0.032 0.032c-0.096 0.064-0.192 0.128-0.288 0.16-0.032 0.032-0.064 0.032-0.096 0.032s-0.064 0.032-0.096 0.032l-0.064 0.032c-0.032 0-0.096 0.032-0.128 0.032h-0.032c-0.032 0-0.096 0.032-0.128 0.032h-0.064c-0.064 0-0.096 0-0.16 0-0.96 0-1.728-0.768-1.728-1.728v-4.544h3.424c0 0 0.032 4.864 0 4.96z"></path>
</symbol>
<symbol id="icon-chainlink" viewBox="3 0 25 25">
<path fill="none" stroke="#fff" style="stroke: var(--color1, #fff)" stroke-linejoin="round" stroke-linecap="round" stroke-miterlimit="4" stroke-width="2.0645" d="M13.935 13.419c0.443 0.593 1.009 1.083 1.658 1.438s1.368 0.566 2.106 0.619c0.738 0.053 1.479-0.054 2.172-0.312s1.323-0.663 1.846-1.187l3.097-3.097c0.94-0.973 1.46-2.277 1.449-3.63s-0.555-2.648-1.512-3.605c-0.957-0.957-2.251-1.5-3.605-1.511s-2.657 0.508-3.63 1.449l-1.775 1.765"></path>
<path fill="none" stroke="#fff" style="stroke: var(--color1, #fff)" stroke-linejoin="round" stroke-linecap="round" stroke-miterlimit="4" stroke-width="2.0645" d="M18.065 11.355c-0.443-0.593-1.009-1.083-1.658-1.438s-1.368-0.566-2.106-0.619c-0.738-0.053-1.479 0.054-2.173 0.312s-1.323 0.663-1.846 1.187l-3.097 3.097c-0.94 0.973-1.46 2.277-1.449 3.63s0.555 2.648 1.511 3.605c0.957 0.957 2.251 1.5 3.605 1.512s2.657-0.509 3.63-1.449l1.765-1.765"></path>
</symbol>

<symbol id="icon-direct-speech" viewBox="0 0 32 32">
<path fill="none" stroke="#fff" style="stroke: var(--color1, #fff)" stroke-linejoin="round" stroke-linecap="round" stroke-miterlimit="4" stroke-width="2.6667" d="M28 20c0 0.707-0.281 1.385-0.781 1.886s-1.178 0.781-1.886 0.781h-16l-5.333 5.333v-21.333c0-0.707 0.281-1.386 0.781-1.886s1.178-0.781 1.886-0.781h18.667c0.707 0 1.385 0.281 1.886 0.781s0.781 1.178 0.781 1.886v13.333z"></path>
</symbol>
<symbol id="icon-dots-5-in-a-row" viewBox="0 0 32 32">
<path fill="#bad1ff" style="fill: var(--color3, #bad1ff)" d="M4.571 16.046c0 1.262-1.023 2.286-2.286 2.286s-2.286-1.023-2.286-2.286c0-1.262 1.023-2.286 2.286-2.286s2.286 1.023 2.286 2.286z"></path>
<path fill="#bad1ff" style="fill: var(--color3, #bad1ff)" d="M11.429 16.046c0 1.262-1.023 2.286-2.286 2.286s-2.286-1.023-2.286-2.286c0-1.262 1.023-2.286 2.286-2.286s2.286 1.023 2.286 2.286z"></path>
<path fill="#1b63f0" style="fill: var(--color2, #1b63f0)" d="M18.286 16.046c0 1.262-1.023 2.286-2.286 2.286s-2.286-1.023-2.286-2.286c0-1.262 1.023-2.286 2.286-2.286s2.286 1.023 2.286 2.286z"></path>
<path fill="#bad1ff" style="fill: var(--color3, #bad1ff)" d="M25.143 16.046c0 1.262-1.023 2.286-2.286 2.286s-2.286-1.023-2.286-2.286c0-1.262 1.023-2.286 2.286-2.286s2.286 1.023 2.286 2.286z"></path>
<path fill="#bad1ff" style="fill: var(--color3, #bad1ff)" d="M32 16.046c0 1.262-1.023 2.286-2.286 2.286s-2.286-1.023-2.286-2.286c0-1.262 1.023-2.286 2.286-2.286s2.286 1.023 2.286 2.286z"></path>
</symbol>
<symbol id="icon-green-background-01" viewBox="0 0 32 32">
<path fill="#42ae7f" style="fill: var(--color6, #42ae7f)" d="M0 7.568v-4.977h32v26.817c-21.758-9.049-32-7.486-32-21.841z"></path>
</symbol>
<symbol id="icon-green-background-02" viewBox="0 0 32 32">
<path fill="#64be97" style="fill: var(--color4, #64be97)" d="M0 7.135v-5.232h32v28.195c-21.758-9.514-32-7.87-32-22.962z"></path>
</symbol>
<symbol id="icon-green-circle" viewBox="0 0 32 32">
<path fill="#a8e2c7" style="fill: var(--color7, #a8e2c7)" opacity="0.4" d="M31.355 13.502c-2.312-12.836-12.35-14.905-19.65-12.776-7.3 2.19-10.676 7.263-11.316 13.932-0.852 8.882 4.745 15.878 13.81 17.156s19.468-5.475 17.156-18.312z"></path>
</symbol>
<symbol id="icon-green-messy-spot" viewBox="0 0 32 32">
<path fill="#d6fae7" style="fill: var(--color8, #d6fae7)" d="M11.483 28.144c5.985 0 20.478-1.375 20.478-6.107 0-2.768-2.935-4.592-5.539-5.374-2.829-0.85-8.996-1.547-8.996-2.768s2.239-9.445-5.17-10.015c-7.41-0.57-12.58 6.595-12.702 12.784s5.944 11.481 11.929 11.481z"></path>
</symbol>
<symbol id="icon-logo-union" viewBox="8 9 14.5 14.5">
<path fill="#1b63f0" style="fill: var(--color2, #1b63f0)" d="M7.111 11.164c2.671 0 4.836 2.165 4.836 4.836 0 2.669-2.162 4.833-4.831 4.836-0.002 0-0.003 0-0.005 0h-0.002c-2.67-0.001-4.834-2.166-4.834-4.836s2.165-4.836 4.836-4.836zM12.325 20.836c1.177-1.269 1.897-2.968 1.897-4.836 0-3.927-3.184-7.111-7.111-7.111s-7.111 3.184-7.111 7.111c0 3.927 3.184 7.111 7.111 7.111 0.002 0 0.004 0 0.006 0h17.245c0.002 0 0.004 0 0.006 0 3.927 0 7.111-3.184 7.111-7.111s-3.184-7.111-7.111-7.111c-3.927 0-7.111 3.184-7.111 7.111 0 1.867 0.72 3.567 1.897 4.836h-6.829zM24.369 20.836h-0.006c-2.668-0.003-4.831-2.167-4.831-4.836 0-2.671 2.165-4.836 4.836-4.836s4.836 2.165 4.836 4.836c0 2.67-2.164 4.835-4.834 4.836z"></path>
</symbol>

<symbol id="icon-book" viewBox="0 0 32 32">
<path fill="none" stroke="#fff" style="stroke: var(--color1, #fff)" stroke-linejoin="round" stroke-linecap="round" stroke-miterlimit="4" stroke-width="2.6667" d="M2.667 4h8c1.415 0 2.771 0.562 3.771 1.562s1.562 2.357 1.562 3.771v18.667c0-1.061-0.421-2.078-1.172-2.828s-1.768-1.172-2.828-1.172h-9.333v-20z"></path>
<path fill="none" stroke="#fff" style="stroke: var(--color1, #fff)" stroke-linejoin="round" stroke-linecap="round" stroke-miterlimit="4" stroke-width="2.6667" d="M29.333 4h-8c-1.415 0-2.771 0.562-3.771 1.562s-1.562 2.357-1.562 3.771v18.667c0-1.061 0.421-2.078 1.172-2.828s1.768-1.172 2.828-1.172h9.333v-20z"></path>
</symbol>
<symbol id="icon-pentool" viewBox="0 0 32 32">
<path fill="none" stroke="#fff" style="stroke: var(--color1, #fff)" stroke-linejoin="round" stroke-linecap="round" stroke-miterlimit="4" stroke-width="2.6667" d="M16 25.333l9.333-9.333 4 4-9.333 9.333-4-4z"></path>
<path fill="none" stroke="#fff" style="stroke: var(--color1, #fff)" stroke-linejoin="round" stroke-linecap="round" stroke-miterlimit="4" stroke-width="2.6667" d="M24 17.333l-2-10-19.333-4.667 4.667 19.333 10 2 6.667-6.667z"></path>
<path fill="none" stroke="#fff" style="stroke: var(--color1, #fff)" stroke-linejoin="round" stroke-linecap="round" stroke-miterlimit="4" stroke-width="2.6667" d="M2.667 2.667l10.115 10.115"></path>
<path fill="none" stroke="#fff" style="stroke: var(--color1, #fff)" stroke-linejoin="round" stroke-linecap="round" stroke-miterlimit="4" stroke-width="2.6667" d="M14.667 17.333c1.473 0 2.667-1.194 2.667-2.667s-1.194-2.667-2.667-2.667c-1.473 0-2.667 1.194-2.667 2.667s1.194 2.667 2.667 2.667z"></path>
</symbol>
<symbol id="icon-quotemark" viewBox="4 4 27 27">
<path fill="#3f4c9a" style="fill: var(--color9, #3f4c9a)" d="M10.338 15.024c1.231 0.542 2.191 1.354 2.88 2.437s1.034 2.363 1.034 3.84c0 2.117-0.665 3.84-1.994 5.169-1.329 1.28-3.028 1.92-5.095 1.92s-3.791-0.665-5.169-1.994c-1.329-1.329-1.994-3.028-1.994-5.095 0-0.985 0.123-1.969 0.369-2.954s0.788-2.462 1.625-4.431l4.283-10.634h7.311l-3.249 11.742zM27.766 15.024c1.231 0.542 2.191 1.354 2.88 2.437s1.034 2.363 1.034 3.84c0 2.117-0.665 3.84-1.994 5.169-1.329 1.28-3.028 1.92-5.095 1.92s-3.791-0.665-5.169-1.994c-1.329-1.329-1.994-3.028-1.994-5.095 0-0.985 0.123-1.969 0.369-2.954s0.788-2.462 1.625-4.431l4.283-10.634h7.311l-3.249 11.742z"></path>
</symbol>
<symbol id="icon-star" viewBox="0 0 32 32">
<path fill="#fdd22f" style="fill: var(--color10, #fdd22f)" d="M25.61 28.754c0.21 1.318-1.19 2.298-2.357 1.651l-6.274-3.483c-0.483-0.268-1.070-0.268-1.553 0l-6.274 3.483c-1.166 0.648-2.567-0.333-2.357-1.651l1.179-7.402c0.080-0.501-0.083-1.010-0.437-1.372l-5.35-5.458c-0.913-0.932-0.388-2.505 0.902-2.702l7.196-1.095c0.533-0.081 0.989-0.425 1.214-0.915l3.046-6.641c0.571-1.244 2.338-1.244 2.909 0l3.046 6.641c0.225 0.49 0.681 0.834 1.214 0.915l7.292 1.11c1.271 0.193 1.806 1.731 0.93 2.672l-5.1 5.477c-0.336 0.36-0.487 0.856-0.409 1.342l1.183 7.427z"></path>
</symbol>
<symbol id="icon-square" viewBox="0 0 32 32">
<path fill="#ffefef" style="fill: var(--color11, #ffefef)" d="M6.4 0h19.2c3.535 0 6.4 2.865 6.4 6.4v19.2c0 3.535-2.865 6.4-6.4 6.4h-19.2c-3.535 0-6.4-2.865-6.4-6.4v-19.2c0-3.535 2.865-6.4 6.4-6.4z"></path>
</symbol>
<symbol id="icon-twitter" viewBox="0 0 32 32">
<path fill="none" stroke="#838383" style="stroke: var(--color33, #25282b)" stroke-linejoin="round" stroke-linecap="round" stroke-miterlimit="4" stroke-width="2.6667" d="M30.667 4c-1.277 0.901-2.691 1.589-4.187 2.040-0.803-0.923-1.87-1.578-3.057-1.875s-2.437-0.222-3.58 0.214c-1.143 0.436-2.125 1.213-2.812 2.226s-1.047 2.212-1.031 3.435v1.333c-2.343 0.061-4.665-0.459-6.759-1.513s-3.894-2.609-5.241-4.527c0 0-5.333 12 6.667 17.333-2.746 1.864-6.017 2.799-9.333 2.667 12 6.667 26.667 0 26.667-15.333-0.001-0.371-0.037-0.742-0.107-1.107 1.361-1.342 2.321-3.036 2.773-4.893z"></path>
</symbol>
<symbol id="icon-youtube" viewBox="0 0 32 32">
<path fill="none" stroke="#838383" style="stroke: var(--color33, #25282b)" stroke-linejoin="round" stroke-linecap="round" stroke-miterlimit="4" stroke-width="2.6667" d="M30.053 8.56c-0.158-0.633-0.481-1.213-0.935-1.681s-1.024-0.808-1.651-0.986c-2.293-0.56-11.467-0.56-11.467-0.56s-9.173 0-11.467 0.613c-0.628 0.178-1.197 0.518-1.652 0.986s-0.777 1.048-0.935 1.681c-0.42 2.327-0.625 4.688-0.613 7.053-0.015 2.383 0.19 4.762 0.613 7.107 0.175 0.613 0.504 1.171 0.958 1.619s1.014 0.772 1.629 0.941c2.293 0.613 11.467 0.613 11.467 0.613s9.173 0 11.467-0.613c0.628-0.178 1.197-0.518 1.651-0.986s0.777-1.048 0.935-1.681c0.417-2.31 0.622-4.653 0.613-7 0.015-2.383-0.19-4.762-0.613-7.107v0z"></path>
<path fill="none" stroke="#838383" style="stroke: var(--color33, #25282b)" stroke-linejoin="round" stroke-linecap="round" stroke-miterlimit="4" stroke-width="2.6667" d="M13 20.027l7.667-4.36-7.667-4.36v8.72z"></path>
</symbol>
<symbol id="icon-facebook" viewBox="0 0 32 32">
<path fill="none" stroke="#838383" style="stroke: var(--color33, #25282b)" stroke-linejoin="round" stroke-linecap="round" stroke-miterlimit="4" stroke-width="2.6667" d="M24 2.667h-4c-1.768 0-3.464 0.702-4.714 1.953s-1.953 2.946-1.953 4.714v4h-4v5.333h4v10.667h5.333v-10.667h4l1.333-5.333h-5.333v-4c0-0.354 0.141-0.693 0.391-0.943s0.589-0.391 0.943-0.391h4v-5.333z"></path>
</symbol>
<symbol id="icon-instagram" viewBox="0 0 32 32">
<path fill="none" stroke="#838383" style="stroke: var(--color33, #25282b" stroke-linejoin="round" stroke-linecap="round" stroke-miterlimit="4" stroke-width="2.6667" d="M22.667 2.667h-13.333c-3.682 0-6.667 2.985-6.667 6.667v13.333c0 3.682 2.985 6.667 6.667 6.667h13.333c3.682 0 6.667-2.985 6.667-6.667v-13.333c0-3.682-2.985-6.667-6.667-6.667z"></path>
<path fill="none" stroke="#838383" style="stroke: var(--color33, #25282b)" stroke-linejoin="round" stroke-linecap="round" stroke-miterlimit="4" stroke-width="2.6667" d="M21.333 15.16c0.165 1.11-0.025 2.243-0.542 3.239s-1.334 1.803-2.336 2.307c-1.002 0.504-2.137 0.68-3.245 0.502s-2.131-0.701-2.924-1.494c-0.793-0.793-1.316-1.816-1.494-2.924s-0.003-2.243 0.502-3.245c0.504-1.002 1.312-1.819 2.308-2.336s2.129-0.706 3.239-0.542c1.132 0.168 2.18 0.695 2.989 1.504s1.337 1.857 1.504 2.989z"></path>
<path fill="none" stroke="#838383" style="stroke: var(--color33, #25282b)" stroke-linejoin="round" stroke-linecap="round" stroke-miterlimit="4" stroke-width="2.6667" d="M23.333 8.667h0.013"></path>
</symbol>
<symbol id="icon-logo-google" viewBox="0 0 96 32">
<path fill="#dedede" style="fill: var(--color12, #dedede)" d="M11.761 0.406h0.849c2.946 0.064 5.845 1.249 7.926 3.347-0.769 0.785-1.553 1.537-2.306 2.322-1.169-1.057-2.578-1.873-4.115-2.162-2.274-0.48-4.724-0.048-6.629 1.249-2.082 1.361-3.491 3.667-3.795 6.133-0.336 2.434 0.352 4.996 1.938 6.885 1.521 1.841 3.843 2.994 6.245 3.074 2.242 0.128 4.579-0.56 6.213-2.13 1.281-1.105 1.873-2.786 2.066-4.419-2.658 0-5.316 0.016-7.974 0v-3.299h11.193c0.576 3.539-0.256 7.526-2.946 10.056-1.793 1.793-4.275 2.85-6.805 3.058-2.45 0.24-4.98-0.224-7.158-1.409-2.61-1.393-4.692-3.747-5.716-6.517-0.961-2.546-0.977-5.428-0.080-7.99 0.817-2.338 2.386-4.403 4.403-5.845 1.938-1.425 4.291-2.21 6.693-2.354z"></path>
<path fill="#dedede" style="fill: var(--color12, #dedede)" d="M75.971 1.239h3.427v22.866c-1.137 0-2.29 0.016-3.427-0.016 0.016-7.606 0-15.228 0-22.85z"></path>
<path fill="#dedede" style="fill: var(--color12, #dedede)" d="M30.992 9.165c2.114-0.4 4.403 0.048 6.149 1.313 1.585 1.121 2.69 2.882 3.026 4.804 0.432 2.226-0.112 4.66-1.553 6.421-1.553 1.969-4.099 3.026-6.581 2.866-2.274-0.128-4.483-1.265-5.829-3.122-1.521-2.050-1.889-4.868-1.057-7.27 0.833-2.578 3.186-4.547 5.845-5.012zM31.472 12.207c-0.865 0.224-1.665 0.721-2.242 1.425-1.553 1.857-1.457 4.884 0.256 6.613 0.977 0.993 2.45 1.457 3.811 1.185 1.265-0.224 2.37-1.073 2.978-2.194 1.057-1.905 0.753-4.532-0.865-6.021-1.041-0.961-2.562-1.361-3.939-1.009z"></path>
<path fill="#dedede" style="fill: var(--color12, #dedede)" d="M47.965 9.165c2.418-0.464 5.060 0.208 6.869 1.905 2.946 2.642 3.267 7.59 0.753 10.632-1.521 1.921-3.987 2.978-6.421 2.866-2.322-0.064-4.612-1.217-5.989-3.122-1.553-2.098-1.889-4.98-1.009-7.43 0.881-2.498 3.187-4.403 5.797-4.852zM48.445 12.207c-0.865 0.224-1.665 0.721-2.242 1.409-1.537 1.825-1.473 4.804 0.176 6.549 0.977 1.041 2.498 1.553 3.907 1.265 1.249-0.24 2.37-1.073 2.978-2.194 1.041-1.921 0.737-4.547-0.897-6.037-1.041-0.961-2.562-1.345-3.923-0.993z"></path>
<path fill="#dedede" style="fill: var(--color12, #dedede)" d="M62.36 10.094c1.841-1.153 4.291-1.473 6.277-0.48 0.624 0.272 1.137 0.737 1.633 1.201 0.016-0.432 0-0.881 0.016-1.329 1.073 0.016 2.146 0 3.235 0.016v14.123c-0.016 2.13-0.56 4.387-2.098 5.941-1.681 1.713-4.259 2.242-6.581 1.889-2.482-0.368-4.644-2.178-5.604-4.467 0.961-0.464 1.97-0.833 2.962-1.265 0.56 1.313 1.697 2.434 3.122 2.69s3.074-0.096 4.003-1.281c0.993-1.217 0.993-2.882 0.945-4.371-0.737 0.721-1.585 1.361-2.61 1.601-2.226 0.624-4.676-0.144-6.389-1.649-1.729-1.505-2.754-3.827-2.658-6.133 0.048-2.61 1.521-5.124 3.747-6.485zM65.675 12.143c-0.977 0.16-1.889 0.705-2.514 1.457-1.505 1.793-1.505 4.66 0.016 6.421 0.865 1.041 2.258 1.617 3.603 1.473 1.265-0.128 2.434-0.929 3.058-2.034 1.057-1.873 0.881-4.419-0.544-6.053-0.881-1.009-2.29-1.505-3.619-1.265z"></path>
<path fill="#dedede" style="fill: var(--color12, #dedede)" d="M83.512 10.91c1.922-1.793 4.884-2.402 7.35-1.457 2.338 0.881 3.828 3.106 4.58 5.396-3.475 1.441-6.934 2.866-10.409 4.307 0.481 0.913 1.218 1.745 2.21 2.082 1.392 0.496 3.058 0.32 4.227-0.609 0.464-0.352 0.833-0.817 1.185-1.265 0.88 0.592 1.762 1.169 2.642 1.761-1.249 1.873-3.347 3.186-5.604 3.395-2.498 0.304-5.157-0.656-6.774-2.61-2.658-3.074-2.402-8.23 0.592-11.001zM85.226 13.873c-0.545 0.785-0.769 1.745-0.753 2.69 2.322-0.961 4.644-1.921 6.966-2.898-0.385-0.897-1.314-1.441-2.258-1.585-1.521-0.272-3.106 0.544-3.955 1.793z"></path>
</symbol>
<symbol id="microsoft" viewBox="0 0 147 32">
<path fill="#dedede" style="fill: var(--color12, #dedede)" d="M146.139 14.517v-2.566h-3.186v-3.989l-0.107 0.033-3.052 0.933v3.022h-4.724v-1.684c0-0.784 0.176-1.384 0.521-1.784 0.343-0.395 0.834-0.596 1.46-0.596 0.45 0 0.916 0.106 1.385 0.315l0.117 0.053v-2.702l-0.055-0.020c-0.437-0.157-1.032-0.236-1.769-0.236-0.93 0-1.773 0.202-2.51 0.603s-1.317 0.974-1.723 1.703c-0.404 0.728-0.61 1.568-0.61 2.498v1.851h-2.219v2.566h2.219v10.808h3.184v-10.809h4.724v6.869c0 2.829 1.334 4.262 3.966 4.262 0.432 0 0.887-0.051 1.353-0.15 0.473-0.102 0.795-0.204 0.985-0.312l0.041-0.025v-2.589l-0.13 0.086c-0.173 0.115-0.388 0.209-0.64 0.279-0.254 0.071-0.465 0.107-0.629 0.107-0.617 0-1.073-0.166-1.356-0.494-0.286-0.331-0.432-0.909-0.432-1.718v-6.314h3.186zM122.555 23.044c-1.156 0-2.067-0.383-2.71-1.138-0.646-0.759-0.973-1.841-0.973-3.215 0-1.418 0.327-2.528 0.974-3.3 0.642-0.767 1.545-1.157 2.683-1.157 1.104 0 1.983 0.372 2.613 1.106 0.632 0.738 0.954 1.839 0.954 3.274 0 1.452-0.302 2.568-0.898 3.314-0.592 0.741-1.481 1.117-2.644 1.117zM122.697 11.629c-2.205 0-3.956 0.646-5.206 1.921-1.248 1.275-1.881 3.039-1.881 5.243 0 2.094 0.618 3.778 1.837 5.005s2.877 1.849 4.928 1.849c2.138 0 3.855-0.655 5.103-1.947 1.249-1.291 1.881-3.038 1.881-5.191 0-2.127-0.594-3.824-1.765-5.043s-2.819-1.838-4.897-1.838zM110.476 11.629c-1.501 0-2.741 0.384-3.689 1.14-0.954 0.761-1.438 1.759-1.438 2.967 0 0.628 0.105 1.186 0.31 1.659 0.207 0.475 0.527 0.892 0.952 1.243 0.421 0.348 1.072 0.712 1.936 1.083 0.725 0.298 1.266 0.551 1.61 0.75 0.336 0.195 0.574 0.391 0.709 0.582 0.131 0.187 0.197 0.443 0.197 0.758 0 0.899-0.674 1.336-2.058 1.336-0.514 0-1.099-0.107-1.74-0.319-0.638-0.208-1.239-0.513-1.783-0.904l-0.132-0.095v3.066l0.048 0.023c0.45 0.208 1.019 0.383 1.688 0.521s1.276 0.208 1.804 0.208c1.627 0 2.939-0.386 3.895-1.147 0.963-0.766 1.451-1.788 1.451-3.038 0-0.902-0.263-1.675-0.781-2.298-0.514-0.618-1.406-1.186-2.651-1.688-0.992-0.398-1.627-0.728-1.889-0.982-0.253-0.245-0.381-0.591-0.381-1.030 0-0.389 0.158-0.7 0.483-0.953 0.327-0.254 0.784-0.383 1.355-0.383 0.531 0 1.074 0.084 1.614 0.248s1.013 0.384 1.409 0.653l0.13 0.089v-2.909l-0.050-0.021c-0.365-0.157-0.847-0.29-1.431-0.399-0.581-0.108-1.109-0.162-1.568-0.162zM97.047 23.044c-1.156 0-2.067-0.383-2.71-1.138-0.646-0.759-0.973-1.84-0.973-3.215 0-1.418 0.328-2.528 0.974-3.3 0.642-0.767 1.545-1.157 2.683-1.157 1.104 0 1.983 0.372 2.613 1.106 0.633 0.738 0.954 1.839 0.954 3.274 0 1.452-0.302 2.568-0.898 3.314-0.592 0.741-1.481 1.117-2.644 1.117zM97.189 11.629c-2.206 0-3.958 0.646-5.206 1.921s-1.882 3.039-1.882 5.243c0 2.095 0.618 3.778 1.837 5.005s2.877 1.849 4.928 1.849c2.138 0 3.855-0.655 5.104-1.947 1.248-1.291 1.88-3.038 1.88-5.191 0-2.127-0.593-3.824-1.765-5.043s-2.819-1.838-4.896-1.838zM85.267 14.267v-2.316h-3.145v13.374h3.145v-6.841c0-1.163 0.264-2.119 0.784-2.841 0.514-0.713 1.199-1.075 2.035-1.075 0.283 0 0.601 0.047 0.946 0.139 0.341 0.092 0.588 0.192 0.734 0.297l0.132 0.096v-3.172l-0.051-0.022c-0.293-0.124-0.708-0.187-1.232-0.187-0.791 0-1.499 0.254-2.104 0.754-0.532 0.44-0.916 1.042-1.211 1.794h-0.034zM76.487 11.629c-1.443 0-2.731 0.309-3.826 0.92-1.097 0.611-1.946 1.485-2.523 2.595-0.575 1.107-0.867 2.401-0.867 3.843 0 1.264 0.283 2.423 0.842 3.445 0.56 1.024 1.352 1.825 2.354 2.38 1.001 0.555 2.158 0.836 3.439 0.836 1.495 0 2.771-0.299 3.795-0.888l0.041-0.024v-2.882l-0.133 0.097c-0.464 0.338-0.981 0.607-1.539 0.801-0.556 0.194-1.063 0.292-1.507 0.292-1.234 0-2.225-0.386-2.945-1.148-0.721-0.762-1.086-1.833-1.086-3.18 0-1.356 0.381-2.454 1.132-3.264 0.749-0.808 1.742-1.218 2.951-1.218 1.034 0 2.041 0.35 2.995 1.042l0.132 0.096v-3.037l-0.043-0.024c-0.359-0.201-0.848-0.367-1.456-0.492-0.605-0.126-1.196-0.189-1.758-0.189zM67.105 11.951h-3.146v13.374h3.146v-13.374zM65.564 6.254c-0.518 0-0.969 0.176-1.34 0.526-0.373 0.35-0.561 0.791-0.561 1.312 0 0.512 0.187 0.945 0.556 1.286 0.367 0.34 0.82 0.512 1.346 0.512s0.981-0.172 1.352-0.512c0.373-0.342 0.563-0.774 0.563-1.287 0-0.502-0.184-0.939-0.547-1.298s-0.823-0.54-1.368-0.54zM57.715 10.965v14.36h3.211v-18.662h-4.444l-5.648 13.861-5.481-13.861h-4.624v18.661h3.017v-14.362h0.104l5.788 14.362h2.277l5.698-14.36h0.104z"></path>
<path fill="#dedede" style="fill: var(--color12, #dedede)" d="M15.052 15.227h-14.799v-14.799h14.799v14.799z"></path>
<path fill="#dedede" style="fill: var(--color12, #dedede)" d="M31.392 15.227h-14.799v-14.799h14.799v14.799z"></path>
<path fill="#dedede" style="fill: var(--color12, #dedede)" d="M15.052 31.573h-14.799v-14.799h14.799v14.799z"></path>
<path fill="#dedede" style="fill: var(--color12, #dedede)" d="M31.392 31.573h-14.799v-14.799h14.799v14.799z"></path>
</symbol>
<symbol id="icon-logo-youfone" viewBox="0 0 122 32">
<path fill="#dedede" style="fill: var(--color12, #dedede)" d="M63.633 3.548h1.757c2.199 0 2.165-3.454 2.165-3.454s-5.266-0.174-5.821-0.049c-2.111 0.149-3.957 1.892-3.957 4.983v17.905c0 1.956 4.046 1.956 4.046 1.956v-12.349h2.569c2.176 0 2.206-3.269 2.206-3.269h-4.775v-3.579c0-1.763 0.466-2.143 1.81-2.143z"></path>
<path fill="#dedede" style="fill: var(--color12, #dedede)" d="M4.193 9.749l0.624 4.397c0.565 4.041 2.691 5.571 2.723 5.571-0.032 0 2.251-1.693 2.752-5.571l0.564-4.366c0.345-2.637 4.255-2.67 4.255-2.67l-0.69 6.449c-0.469 4.27-3.065 7.494-4.941 8.992l-1.222 0.978c-2.001 1.63-3.566 2.997-3.566 5.179 0 1.24 0.44 2.344 0.657 2.836-0.533 0.291-1.095 0.455-1.658 0.455-1.47 0-2.878-1.075-2.878-3.649 0-2.964 2.001-4.691 4.348-6.482-2.002-1.239-4.066-4.531-4.472-8.309l-0.691-6.449c0 0 3.817-0.066 4.193 2.638z"></path>
<path fill="#dedede" style="fill: var(--color12, #dedede)" d="M28.814 13.411c0-2.012-0.595-3.165-3.481-3.165-2.884 0-3.48 1.153-3.48 3.165v5.179c0 2.013 0.596 3.166 3.48 3.166 2.886 0 3.481-1.154 3.481-3.166v-5.179zM32.889 19.085c0 3.628-2.414 5.804-7.556 5.804s-7.555-2.176-7.555-5.804v-6.17c0-3.626 2.413-5.805 7.555-5.805s7.556 2.179 7.556 5.805v6.17z"></path>
<path fill="#dedede" style="fill: var(--color12, #dedede)" d="M42.579 18.309c0 1.676 0.837 2.625 3.217 2.625 1.707 0 3.182-0.444 3.182-0.444v-13.379c0 0 4.356 0 4.356 2.055v14.834c0 0-1.306-0.663-3.015-0.663-1.642 0-3.183 0.663-4.992 0.663-3.45 0-7.104-1.105-7.104-5.216v-11.673c0 0 4.357 0.062 4.357 2.055v9.143z"></path>
<path fill="#dedede" style="fill: var(--color12, #dedede)" d="M80.369 13.411c0-2.012-0.597-3.165-3.48-3.165-2.884 0-3.478 1.153-3.478 3.165v5.179c0 2.013 0.594 3.166 3.478 3.166s3.48-1.154 3.48-3.166v-5.179zM84.444 19.085c0 3.628-2.414 5.804-7.556 5.804s-7.556-2.176-7.556-5.804v-6.17c0-3.626 2.415-5.805 7.556-5.805s7.556 2.179 7.556 5.805v6.17z"></path>
<path fill="#dedede" style="fill: var(--color12, #dedede)" d="M99.645 12.804c0-1.677-0.84-2.625-3.218-2.625-1.707 0-3.181 0.443-3.181 0.443v13.378c0 0-4.357 0-4.357-2.055v-14.834c0 0 1.306 0.663 3.017 0.663 1.642 0 3.183-0.663 4.991-0.663 3.452 0 7.103 1.105 7.103 5.218v11.671c0 0-4.355-0.062-4.355-2.055v-9.141z"></path>
<path fill="#dedede" style="fill: var(--color12, #dedede)" d="M111.14 14.367c0.345 0.068 1.55 0.297 2.58 0.297 2.48 0 3.342-0.759 3.342-2.078 0-1.383-0.794-2.342-2.927-2.342-2.34 0-2.995 1.155-2.995 3.167v0.956zM106.667 19.085v-6.168c0-3.627 2.684-5.805 7.607-5.805s7.263 2.179 7.263 5.475c0 2.803-1.721 5.409-7.16 5.409-1.103 0-2.204-0.196-3.236-0.594v1.188c0 1.977 1.238 3.001 3.823 3.001 3.406 0 5.713-1.384 5.748-3.364 0.721 0.988 1.067 1.88 1.067 2.706 0 2.373-2.857 3.957-6.814 3.957-5.234 0-8.297-2.176-8.297-5.804z"></path>
</symbol>
</defs>
</svg>
