<svg width="56" height="56" viewBox="0 0 56 56" fill="none" xmlns="http://www.w3.org/2000/svg">
<path d="M15.764 4.56389H45.332C46.172 4.56389 46.9 3.89189 46.9 2.99589C46.9 2.09989 46.172 1.48389 45.332 1.48389H15.764C12.348 1.48389 9.548 4.00389 9.156 7.30789C9.1 7.41989 9.1 7.58789 9.1 7.75589V49.6439C9.1 52.3319 11.284 54.5159 13.972 54.5159H44.268C45.388 54.5159 46.34 53.5639 46.34 52.4439V13.8599C46.34 12.7399 45.388 11.7879 44.268 11.7879H15.764C13.804 11.7879 12.124 10.1079 12.124 8.14789C12.124 6.18789 13.804 4.56389 15.764 4.56389ZM15.764 14.8679H43.26V51.4359H13.972C12.964 51.4359 12.18 50.6519 12.18 49.6439V13.8039C13.188 14.4759 14.42 14.8679 15.764 14.8679Z" fill="#1B63F0"/>
<path d="M35.0844 45.1079H20.8604C20.0204 45.1079 19.2924 45.7799 19.2924 46.6759C19.2924 47.5719 19.9644 48.2439 20.8604 48.2439H35.0284C35.8684 48.2439 36.5964 47.5719 36.5964 46.6759C36.5964 45.7799 35.9244 45.1079 35.0844 45.1079Z" fill="#1B63F0"/>
<path d="M19.4036 24.7799H36.4836C37.0996 24.7799 37.6036 24.2759 37.6036 23.6599V20.2999C37.6036 19.6839 37.0996 19.1799 36.4836 19.1799H19.4036C18.7876 19.1799 18.2836 19.6839 18.2836 20.2999V23.6599C18.2836 24.2759 18.7876 24.7799 19.4036 24.7799Z" fill="#1B63F0"/>
</svg>
