<svg width="30" height="31" viewBox="0 0 30 31" fill="none" xmlns="http://www.w3.org/2000/svg">
<g filter="url(#filter0_d_1_742)">
<path d="M13 13C13.4295 13.5741 13.9774 14.0492 14.6066 14.3929C15.2357 14.7367 15.9315 14.9411 16.6467 14.9923C17.3618 15.0436 18.0796 14.9404 18.7513 14.6898C19.4231 14.4392 20.0331 14.0471 20.54 13.54L23.54 10.54C24.4508 9.59699 24.9548 8.33398 24.9434 7.02299C24.932 5.71201 24.4061 4.45795 23.4791 3.53091C22.5521 2.60387 21.298 2.07802 19.987 2.06663C18.676 2.05524 17.413 2.55921 16.47 3.47L14.75 5.18" stroke="white" stroke-width="2" stroke-linecap="round" stroke-linejoin="round"/>
<path d="M17 11C16.5705 10.4259 16.0226 9.95082 15.3935 9.60706C14.7643 9.2633 14.0685 9.05888 13.3534 9.00767C12.6382 8.95645 11.9204 9.05963 11.2487 9.31022C10.5769 9.5608 9.96689 9.95293 9.46 10.46L6.46 13.46C5.54921 14.403 5.04524 15.666 5.05663 16.977C5.06802 18.288 5.59387 19.5421 6.52091 20.4691C7.44795 21.3961 8.70201 21.922 10.013 21.9334C11.324 21.9448 12.587 21.4408 13.53 20.53L15.24 18.82" stroke="white" stroke-width="2" stroke-linecap="round" stroke-linejoin="round"/>
</g>
<defs>
<filter id="filter0_d_1_742" x="-1" y="0" width="32" height="32" filterUnits="userSpaceOnUse" color-interpolation-filters="sRGB">
<feFlood flood-opacity="0" result="BackgroundImageFix"/>
<feColorMatrix in="SourceAlpha" type="matrix" values="0 0 0 0 0 0 0 0 0 0 0 0 0 0 0 0 0 0 127 0" result="hardAlpha"/>
<feOffset dy="4"/>
<feGaussianBlur stdDeviation="2"/>
<feComposite in2="hardAlpha" operator="out"/>
<feColorMatrix type="matrix" values="0 0 0 0 0 0 0 0 0 0 0 0 0 0 0 0 0 0 0.25 0"/>
<feBlend mode="normal" in2="BackgroundImageFix" result="effect1_dropShadow_1_742"/>
<feBlend mode="normal" in="SourceGraphic" in2="effect1_dropShadow_1_742" result="shape"/>
</filter>
</defs>
</svg>
