<svg aria-hidden="true" style="position: absolute; width: 0; height: 0; overflow: hidden;" version="1.1" xmlns="http://www.w3.org/2000/svg" xmlns:xlink="http://www.w3.org/1999/xlink">
<defs>
<symbol id="icon-chainlink" viewBox="0 0 32 32">
<path fill="none" stroke="#fff" style="stroke: var(--color1, #fff)" stroke-linejoin="round" stroke-linecap="round" stroke-miterlimit="4" stroke-width="2.0645" d="M13.935 13.419c0.443 0.593 1.009 1.083 1.658 1.438s1.368 0.566 2.106 0.619c0.738 0.053 1.479-0.054 2.172-0.312s1.323-0.663 1.846-1.187l3.097-3.097c0.94-0.973 1.46-2.277 1.449-3.63s-0.555-2.648-1.512-3.605c-0.957-0.957-2.251-1.5-3.605-1.511s-2.657 0.508-3.63 1.449l-1.775 1.765"></path>
<path fill="none" stroke="#fff" style="stroke: var(--color1, #fff)" stroke-linejoin="round" stroke-linecap="round" stroke-miterlimit="4" stroke-width="2.0645" d="M18.065 11.355c-0.443-0.593-1.009-1.083-1.658-1.438s-1.368-0.566-2.106-0.619c-0.738-0.053-1.479 0.054-2.173 0.312s-1.323 0.663-1.846 1.187l-3.097 3.097c-0.94 0.973-1.46 2.277-1.449 3.63s0.555 2.648 1.511 3.605c0.957 0.957 2.251 1.5 3.605 1.512s2.657-0.509 3.63-1.449l1.765-1.765"></path>
</symbol>
<symbol id="icon-direct-speech" viewBox="0 0 32 32">
<path fill="none" stroke="#fff" style="stroke: var(--color1, #fff)" stroke-linejoin="round" stroke-linecap="round" stroke-miterlimit="4" stroke-width="2.6667" d="M28 20c0 0.707-0.281 1.385-0.781 1.886s-1.178 0.781-1.886 0.781h-16l-5.333 5.333v-21.333c0-0.707 0.281-1.386 0.781-1.886s1.178-0.781 1.886-0.781h18.667c0.707 0 1.385 0.281 1.886 0.781s0.781 1.178 0.781 1.886v13.333z"></path>
</symbol>
<symbol id="icon-dots-5-in-a-row" viewBox="0 0 32 32">
<path fill="#bad1ff" style="fill: var(--color2, #bad1ff)" d="M4.571 16.046c0 1.262-1.023 2.286-2.286 2.286s-2.286-1.023-2.286-2.286c0-1.262 1.023-2.286 2.286-2.286s2.286 1.023 2.286 2.286z"></path>
<path fill="#bad1ff" style="fill: var(--color2, #bad1ff)" d="M11.429 16.046c0 1.262-1.023 2.286-2.286 2.286s-2.286-1.023-2.286-2.286c0-1.262 1.023-2.286 2.286-2.286s2.286 1.023 2.286 2.286z"></path>
<path fill="#1b63f0" style="fill: var(--color3, #1b63f0)" d="M18.286 16.046c0 1.262-1.023 2.286-2.286 2.286s-2.286-1.023-2.286-2.286c0-1.262 1.023-2.286 2.286-2.286s2.286 1.023 2.286 2.286z"></path>
<path fill="#bad1ff" style="fill: var(--color2, #bad1ff)" d="M25.143 16.046c0 1.262-1.023 2.286-2.286 2.286s-2.286-1.023-2.286-2.286c0-1.262 1.023-2.286 2.286-2.286s2.286 1.023 2.286 2.286z"></path>
<path fill="#bad1ff" style="fill: var(--color2, #bad1ff)" d="M32 16.046c0 1.262-1.023 2.286-2.286 2.286s-2.286-1.023-2.286-2.286c0-1.262 1.023-2.286 2.286-2.286s2.286 1.023 2.286 2.286z"></path>
</symbol>
<symbol id="icon-logo-union" viewBox="0 0 32 32">
<path fill="#1b63f0" style="fill: var(--color3, #1b63f0)" d="M7.111 11.164c2.671 0 4.836 2.165 4.836 4.836 0 2.669-2.162 4.833-4.831 4.836-0.002 0-0.003 0-0.005 0h-0.002c-2.67-0.001-4.834-2.166-4.834-4.836s2.165-4.836 4.836-4.836zM12.325 20.836c1.177-1.269 1.897-2.968 1.897-4.836 0-3.927-3.184-7.111-7.111-7.111s-7.111 3.184-7.111 7.111c0 3.927 3.184 7.111 7.111 7.111 0.002 0 0.004 0 0.006 0h17.245c0.002 0 0.004 0 0.006 0 3.927 0 7.111-3.184 7.111-7.111s-3.184-7.111-7.111-7.111c-3.927 0-7.111 3.184-7.111 7.111 0 1.867 0.72 3.567 1.897 4.836h-6.829zM24.369 20.836h-0.006c-2.668-0.003-4.831-2.167-4.831-4.836 0-2.671 2.165-4.836 4.836-4.836s4.836 2.165 4.836 4.836c0 2.67-2.164 4.835-4.834 4.836z"></path>
</symbol>
<symbol id="icon-openedbook" viewBox="0 0 32 32">
<path fill="none" stroke="#fff" style="stroke: var(--color1, #fff)" stroke-linejoin="round" stroke-linecap="round" stroke-miterlimit="4" stroke-width="2.6667" d="M2.667 4h8c1.415 0 2.771 0.562 3.771 1.562s1.562 2.357 1.562 3.771v18.667c0-1.061-0.421-2.078-1.172-2.828s-1.768-1.172-2.828-1.172h-9.333v-20z"></path>
<path fill="none" stroke="#fff" style="stroke: var(--color1, #fff)" stroke-linejoin="round" stroke-linecap="round" stroke-miterlimit="4" stroke-width="2.6667" d="M29.333 4h-8c-1.415 0-2.771 0.562-3.771 1.562s-1.562 2.357-1.562 3.771v18.667c0-1.061 0.421-2.078 1.172-2.828s1.768-1.172 2.828-1.172h9.333v-20z"></path>
</symbol>
<symbol id="icon-pentool" viewBox="0 0 32 32">
<path fill="none" stroke="#fff" style="stroke: var(--color1, #fff)" stroke-linejoin="round" stroke-linecap="round" stroke-miterlimit="4" stroke-width="2.6667" d="M16 25.333l9.333-9.333 4 4-9.333 9.333-4-4z"></path>
<path fill="none" stroke="#fff" style="stroke: var(--color1, #fff)" stroke-linejoin="round" stroke-linecap="round" stroke-miterlimit="4" stroke-width="2.6667" d="M24 17.333l-2-10-19.333-4.667 4.667 19.333 10 2 6.667-6.667z"></path>
<path fill="none" stroke="#fff" style="stroke: var(--color1, #fff)" stroke-linejoin="round" stroke-linecap="round" stroke-miterlimit="4" stroke-width="2.6667" d="M2.667 2.667l10.115 10.115"></path>
<path fill="none" stroke="#fff" style="stroke: var(--color1, #fff)" stroke-linejoin="round" stroke-linecap="round" stroke-miterlimit="4" stroke-width="2.6667" d="M14.667 17.333c1.473 0 2.667-1.194 2.667-2.667s-1.194-2.667-2.667-2.667c-1.473 0-2.667 1.194-2.667 2.667s1.194 2.667 2.667 2.667z"></path>
</symbol>
<symbol id="icon-quotemark" viewBox="0 0 32 32">
<path fill="#3f4c9a" style="fill: var(--color4, #3f4c9a)" d="M10.338 15.024c1.231 0.542 2.191 1.354 2.88 2.437s1.034 2.363 1.034 3.84c0 2.117-0.665 3.84-1.994 5.169-1.329 1.28-3.028 1.92-5.095 1.92s-3.791-0.665-5.169-1.994c-1.329-1.329-1.994-3.028-1.994-5.095 0-0.985 0.123-1.969 0.369-2.954s0.788-2.462 1.625-4.431l4.283-10.634h7.311l-3.249 11.742zM27.766 15.024c1.231 0.542 2.191 1.354 2.88 2.437s1.034 2.363 1.034 3.84c0 2.117-0.665 3.84-1.994 5.169-1.329 1.28-3.028 1.92-5.095 1.92s-3.791-0.665-5.169-1.994c-1.329-1.329-1.994-3.028-1.994-5.095 0-0.985 0.123-1.969 0.369-2.954s0.788-2.462 1.625-4.431l4.283-10.634h7.311l-3.249 11.742z"></path>
</symbol>
<symbol id="icon-star" viewBox="0 0 32 32">
<path fill="#fdd22f" style="fill: var(--color5, #fdd22f)" d="M25.61 28.754c0.21 1.318-1.19 2.298-2.357 1.651l-6.274-3.483c-0.483-0.268-1.070-0.268-1.553 0l-6.274 3.483c-1.166 0.648-2.567-0.333-2.357-1.651l1.179-7.402c0.080-0.501-0.083-1.010-0.437-1.372l-5.35-5.458c-0.913-0.932-0.388-2.505 0.902-2.702l7.196-1.095c0.533-0.081 0.989-0.425 1.214-0.915l3.046-6.641c0.571-1.244 2.338-1.244 2.909 0l3.046 6.641c0.225 0.49 0.681 0.834 1.214 0.915l7.292 1.11c1.271 0.193 1.806 1.731 0.93 2.672l-5.1 5.477c-0.336 0.36-0.487 0.856-0.409 1.342l1.183 7.427z"></path>
</symbol>
<symbol id="icon-slide-left" viewBox="0 0 32 32">
<path fill="#fff" style="fill: var(--color1, #fff)" d="M16 5.479c4.842 0 8.767 3.925 8.767 8.767s-3.925 8.767-8.767 8.767c-4.842 0-8.767-3.925-8.767-8.767s3.925-8.767 8.767-8.767z"></path>
<path fill="none" stroke="#64be97" style="stroke: var(--color6, #64be97)" stroke-linejoin="round" stroke-linecap="round" stroke-miterlimit="4" stroke-width="0.8767" d="M17.315 16.877l-2.63-2.63 2.63-2.63"></path>
</symbol>
<symbol id="icon-slide-right" viewBox="0 0 32 32">
<path fill="#fff" style="fill: var(--color1, #fff)" d="M16 5.479c4.842 0 8.767 3.925 8.767 8.767s-3.925 8.767-8.767 8.767c-4.842 0-8.767-3.925-8.767-8.767s3.925-8.767 8.767-8.767z"></path>
<path fill="none" stroke="#64be97" style="stroke: var(--color6, #64be97)" stroke-linejoin="round" stroke-linecap="round" stroke-miterlimit="4" stroke-width="0.8767" d="M14.685 16.877l2.63-2.63-2.63-2.63"></path>
</symbol>
<symbol id="icon-briefcase" viewBox="0 0 32 32">
<path fill="none" stroke="#fff" style="stroke: var(--color1, #fff)" stroke-linejoin="round" stroke-linecap="round" stroke-miterlimit="4" stroke-width="2.6667" d="M26.667 9.333h-21.333c-1.473 0-2.667 1.194-2.667 2.667v13.333c0 1.473 1.194 2.667 2.667 2.667h21.333c1.473 0 2.667-1.194 2.667-2.667v-13.333c0-1.473-1.194-2.667-2.667-2.667z"></path>
<path fill="none" stroke="#fff" style="stroke: var(--color1, #fff)" stroke-linejoin="round" stroke-linecap="round" stroke-miterlimit="4" stroke-width="2.6667" d="M21.333 28v-21.333c0-0.707-0.281-1.386-0.781-1.886s-1.178-0.781-1.886-0.781h-5.333c-0.707 0-1.386 0.281-1.886 0.781s-0.781 1.178-0.781 1.886v21.333"></path>
</symbol>
<symbol id="icon-certificate-book" viewBox="0 0 32 32">
<path fill="#1b63f0" style="fill: var(--color3, #1b63f0)" d="M9.008 2.608h16.896c0.48 0 0.896-0.384 0.896-0.896s-0.416-0.864-0.896-0.864h-16.896c-1.952 0-3.552 1.44-3.776 3.328-0.032 0.064-0.032 0.16-0.032 0.256v23.936c0 1.536 1.248 2.784 2.784 2.784h17.312c0.64 0 1.184-0.544 1.184-1.184v-22.048c0-0.64-0.544-1.184-1.184-1.184h-16.288c-1.12 0-2.080-0.96-2.080-2.080s0.96-2.048 2.080-2.048zM9.008 8.496h15.712v20.896h-16.736c-0.576 0-1.024-0.448-1.024-1.024v-20.48c0.576 0.384 1.28 0.608 2.048 0.608z"></path>
<path fill="#1b63f0" style="fill: var(--color3, #1b63f0)" d="M20.048 25.776h-8.128c-0.48 0-0.896 0.384-0.896 0.896s0.384 0.896 0.896 0.896h8.096c0.48 0 0.896-0.384 0.896-0.896s-0.384-0.896-0.864-0.896z"></path>
<path fill="#1b63f0" style="fill: var(--color3, #1b63f0)" d="M11.088 14.16h9.76c0.352 0 0.64-0.288 0.64-0.64v-1.92c0-0.352-0.288-0.64-0.64-0.64h-9.76c-0.352 0-0.64 0.288-0.64 0.64v1.92c0 0.352 0.288 0.64 0.64 0.64z"></path>
</symbol>
<symbol id="icon-certificate-devider" viewBox="0 0 32 32">
<path fill="#1b63f0" style="fill: var(--color3, #1b63f0)" d="M27.135 25.648l-3.584-7.936c1.216-1.12 2.176-2.528 2.816-4.128 0.16-0.448-0.064-0.96-0.512-1.152s-0.96 0.064-1.152 0.512c-0.448 1.152-1.12 2.208-1.952 3.072l-2.432-5.408c0.384-0.704 0.576-1.472 0.576-2.304 0-2.368-1.664-4.32-3.872-4.8v-1.536c0-0.544-0.448-0.992-0.992-0.992s-0.992 0.448-0.992 0.992v1.536c-2.208 0.48-3.872 2.432-3.872 4.8 0 0.832 0.224 1.632 0.576 2.304l-2.432 5.408c-0.832-0.864-1.472-1.888-1.952-3.072-0.192-0.448-0.672-0.672-1.152-0.512-0.448 0.192-0.672 0.672-0.512 1.152 0.64 1.632 1.6 3.008 2.816 4.128l-3.584 7.936-0.128 4.288c0 0.416 0.224 0.8 0.608 0.992 0.128 0.064 0.288 0.096 0.416 0.096 0.256 0 0.512-0.096 0.704-0.288l3.104-2.944 3.392-7.52c0.96 0.256 1.952 0.416 2.976 0.416s2.016-0.16 2.976-0.416l3.392 7.52 3.104 2.944c0.192 0.192 0.448 0.288 0.704 0.288 0.128 0 0.288-0.032 0.416-0.096 0.384-0.16 0.64-0.544 0.608-0.992l-0.064-4.288zM14.431 12.912l-2.304 5.12c-0.512-0.224-0.992-0.512-1.472-0.832l2.304-5.088c0.448 0.352 0.928 0.608 1.472 0.8zM19.103 12.112l2.304 5.088c-0.448 0.32-0.96 0.608-1.472 0.832l-2.304-5.12c0.544-0.192 1.024-0.448 1.472-0.8zM16.031 5.168c1.728 0 3.136 1.408 3.136 3.136s-1.408 3.136-3.136 3.136c-1.728 0-3.136-1.408-3.136-3.136s1.408-3.136 3.136-3.136zM8.223 26.736l-1.6 1.504 0.064-2.176 3.264-7.232c0.48 0.32 0.96 0.576 1.472 0.8l-3.2 7.104zM16.031 18.896c-0.768 0-1.504-0.096-2.24-0.256l2.24-4.96 2.24 4.96c-0.736 0.16-1.472 0.256-2.24 0.256zM23.839 26.736l-3.2-7.072c0.512-0.224 0.992-0.512 1.472-0.8l3.264 7.2 0.064 2.176-1.6-1.504z"></path>
</symbol>
<symbol id="icon-certificate-microscope" viewBox="0 0 32 32">
<path fill="#1b63f0" style="fill: var(--color3, #1b63f0)" d="M6.208 30.87h21.984c0-0.928-4.32-1.696-9.856-1.792v-1.952c0.032 0 0.064 0 0.096 0 5.248-0.64 9.248-5.12 9.248-10.464 0-2.976-1.28-5.824-3.488-7.808-0.256-0.224-0.544-0.448-0.8-0.672l1.376-2.496c0.512-0.928 0.16-2.080-0.768-2.592l-3.136-1.728c-0.928-0.512-2.080-0.16-2.592 0.768l-6.144 11.296c-0.512 0.928-0.16 2.080 0.768 2.592l3.136 1.728c0.288 0.128 0.608 0.192 0.928 0.192 0.192 0 0.352-0.032 0.544-0.064 0.48-0.128 0.896-0.48 1.12-0.928l3.904-7.168c0.16 0.128 0.32 0.256 0.48 0.416 1.824 1.664 2.88 4.032 2.88 6.496 0 4.416-3.328 8.16-7.712 8.672-0.768 0.096-1.536 0.064-2.304-0.032-2.432-0.352-4.544-1.696-5.888-3.68h8.384c0.48 0 0.896-0.384 0.896-0.896s-0.384-0.896-0.864-0.896h-13.696c-0.48 0-0.896 0.384-0.896 0.896s0.384 0.896 0.896 0.896h3.232c1.568 2.912 4.384 4.928 7.712 5.44 0.032 0 0.096 0 0.128 0v2.016c-5.408 0.064-9.568 0.832-9.568 1.76zM17.088 16.118c-0.032 0.032-0.064 0.064-0.096 0.064s-0.064 0-0.096 0l-3.136-1.728c-0.064-0.032-0.096-0.128-0.064-0.192l6.112-11.232c0.032-0.064 0.128-0.096 0.192-0.064l3.136 1.728c0.064 0.032 0.096 0.128 0.064 0.192l-6.112 11.232z"></path>
</symbol>
<symbol id="icon-certificate-scroll" viewBox="0 0 32 32">
<path fill="#1b63f0" style="fill: var(--color3, #1b63f0)" d="M29.705 18.096h-3.584v-13.408c0-2.080-1.696-3.808-3.776-3.808h-0.032c-0.128 0-0.288 0-0.416 0h-15.456c-3.104 0-5.664 2.528-5.664 5.664v2.112c0 0.896 0.736 1.632 1.632 1.632h3.136v14.624c0 1.696 1.376 3.104 3.104 3.104h3.808v2.048c0 0.384 0.224 0.768 0.576 0.928 0.16 0.096 0.32 0.128 0.512 0.128s0.416-0.064 0.576-0.192l2.24-1.504 2.24 1.504c0.32 0.224 0.736 0.224 1.088 0.064 0.352-0.192 0.576-0.544 0.576-0.928v-2.080c0.064 0.032 0.16 0.032 0.224 0.032h7.392c0.128 0 0.224 0 0.32-0.032h0.064c0.064 0 0.16-0.032 0.256-0.032 0.032 0 0.064 0 0.064 0 0.032 0 0.064 0 0.064-0.032 0.064 0 0.096-0.032 0.16-0.032 0.032 0 0.096-0.032 0.128-0.032s0.064 0 0.064-0.032c0.096-0.032 0.192-0.064 0.256-0.096 0.032 0 0.064-0.032 0.064-0.032 0.032 0 0.032-0.032 0.064-0.032 0.096-0.032 0.16-0.096 0.256-0.128 0.064-0.032 0.16-0.096 0.224-0.16 0 0 0.032 0 0.032-0.032l0.064-0.064c0.064-0.064 0.128-0.096 0.192-0.16 0.096-0.096 0.224-0.192 0.288-0.32 0.064-0.064 0.16-0.192 0.224-0.32 0-0.032 0.032-0.032 0.032-0.064s0.032-0.032 0.032-0.064c0-0.032 0.032-0.032 0.032-0.064 0.032-0.064 0.064-0.096 0.096-0.16s0.064-0.128 0.096-0.192c0-0.032 0.032-0.064 0.032-0.096 0.064-0.192 0.128-0.384 0.16-0.576 0.032-0.224 0.064-0.448 0.064-0.704v-4.832c0.128-0.896-0.608-1.632-1.504-1.632zM2.537 6.512c0-2.144 1.76-3.904 3.904-3.904h12.32c-0.448 0.64-0.704 1.44-0.704 2.272v3.584h-15.52v-1.952zM16.329 23.76c-1.888 0-3.424-1.536-3.424-3.424s1.536-3.392 3.424-3.392c1.888 0 3.424 1.536 3.424 3.424s-1.536 3.392-3.424 3.392zM16.329 27.248l-2.144 1.408v-3.584c0.64 0.288 1.376 0.48 2.144 0.48s1.472-0.16 2.144-0.48v3.616l-2.144-1.44zM20.233 26.224v-2.464c0.8-0.896 1.28-2.080 1.28-3.392 0-2.848-2.304-5.184-5.184-5.184-2.848 0-5.184 2.304-5.184 5.184 0 1.28 0.48 2.464 1.28 3.392v2.432h-3.808c-0.736 0-1.344-0.608-1.344-1.344v-14.624h10.88c0.896 0 1.632-0.736 1.632-1.632v-3.68c0-1.184 0.928-2.208 2.112-2.272h0.416c1.12 0 2.048 0.928 2.048 2.048v19.808c0 0.608 0.16 1.216 0.448 1.728h-4.352c-0.096-0.032-0.16-0.032-0.224 0zM29.513 24.816c-0.032 0.096-0.064 0.224-0.096 0.32-0.032 0.064-0.064 0.096-0.064 0.16l-0.064 0.096c-0.032 0.032-0.064 0.096-0.096 0.128l-0.032 0.032c-0.032 0.032-0.064 0.096-0.128 0.128-0.032 0.032-0.064 0.064-0.128 0.096l-0.032 0.032c-0.096 0.064-0.192 0.128-0.288 0.16-0.032 0.032-0.064 0.032-0.096 0.032s-0.064 0.032-0.096 0.032l-0.064 0.032c-0.032 0-0.096 0.032-0.128 0.032h-0.032c-0.032 0-0.096 0.032-0.128 0.032h-0.064c-0.064 0-0.096 0-0.16 0-0.96 0-1.728-0.768-1.728-1.728v-4.544h3.424c0 0 0.032 4.864 0 4.96z"></path>
</symbol>
</defs>
</svg>
