<svg aria-hidden="true" style="position: absolute; width: 0; height: 0; overflow: hidden;" version="1.1" xmlns="http://www.w3.org/2000/svg" xmlns:xlink="http://www.w3.org/1999/xlink">
<defs>
<symbol id="icon-blue-rectangle" viewBox="0 0 32 32">
<path fill="#637af2" style="fill: var(--color1, #637af2)" d="M2.233 0h27.535c1.233 0 2.233 1 2.233 2.233v27.535c0 1.233-1 2.233-2.233 2.233h-27.535c-1.233 0-2.233-1-2.233-2.233v-27.535c0-1.233 1-2.233 2.233-2.233z"></path>
</symbol>
<symbol id="icon-briefcase" viewBox="0 0 32 32">
<path fill="none" stroke="#fff" style="stroke: var(--color2, #fff)" stroke-linejoin="round" stroke-linecap="round" stroke-miterlimit="4" stroke-width="2.6667" d="M26.667 9.333h-21.333c-1.473 0-2.667 1.194-2.667 2.667v13.333c0 1.473 1.194 2.667 2.667 2.667h21.333c1.473 0 2.667-1.194 2.667-2.667v-13.333c0-1.473-1.194-2.667-2.667-2.667z"></path>
<path fill="none" stroke="#fff" style="stroke: var(--color2, #fff)" stroke-linejoin="round" stroke-linecap="round" stroke-miterlimit="4" stroke-width="2.6667" d="M21.333 28v-21.333c0-0.707-0.281-1.386-0.781-1.886s-1.178-0.781-1.886-0.781h-5.333c-0.707 0-1.386 0.281-1.886 0.781s-0.781 1.178-0.781 1.886v21.333"></path>
</symbol>
<symbol id="icon-calendar" viewBox="0 0 32 32">
<path fill="none" stroke="#838383" style="stroke: var(--color3, #838383)" stroke-linejoin="round" stroke-linecap="round" stroke-miterlimit="4" stroke-width="2.4" d="M25.333 5.333h-18.667c-1.473 0-2.667 1.194-2.667 2.667v18.667c0 1.473 1.194 2.667 2.667 2.667h18.667c1.473 0 2.667-1.194 2.667-2.667v-18.667c0-1.473-1.194-2.667-2.667-2.667z"></path>
<path fill="none" stroke="#838383" style="stroke: var(--color3, #838383)" stroke-linejoin="round" stroke-linecap="round" stroke-miterlimit="4" stroke-width="2.4" d="M21.333 2.667v5.333"></path>
<path fill="none" stroke="#838383" style="stroke: var(--color3, #838383)" stroke-linejoin="round" stroke-linecap="round" stroke-miterlimit="4" stroke-width="2.4" d="M10.667 2.667v5.333"></path>
<path fill="none" stroke="#838383" style="stroke: var(--color3, #838383)" stroke-linejoin="round" stroke-linecap="round" stroke-miterlimit="4" stroke-width="2.4" d="M4 13.333h24"></path>
</symbol>
<symbol id="icon-certificate-book" viewBox="0 0 32 32">
<path fill="#1b63f0" style="fill: var(--color4, #1b63f0)" d="M9.008 2.608h16.896c0.48 0 0.896-0.384 0.896-0.896s-0.416-0.864-0.896-0.864h-16.896c-1.952 0-3.552 1.44-3.776 3.328-0.032 0.064-0.032 0.16-0.032 0.256v23.936c0 1.536 1.248 2.784 2.784 2.784h17.312c0.64 0 1.184-0.544 1.184-1.184v-22.048c0-0.64-0.544-1.184-1.184-1.184h-16.288c-1.12 0-2.080-0.96-2.080-2.080s0.96-2.048 2.080-2.048zM9.008 8.496h15.712v20.896h-16.736c-0.576 0-1.024-0.448-1.024-1.024v-20.48c0.576 0.384 1.28 0.608 2.048 0.608z"></path>
<path fill="#1b63f0" style="fill: var(--color4, #1b63f0)" d="M20.048 25.776h-8.128c-0.48 0-0.896 0.384-0.896 0.896s0.384 0.896 0.896 0.896h8.096c0.48 0 0.896-0.384 0.896-0.896s-0.384-0.896-0.864-0.896z"></path>
<path fill="#1b63f0" style="fill: var(--color4, #1b63f0)" d="M11.088 14.16h9.76c0.352 0 0.64-0.288 0.64-0.64v-1.92c0-0.352-0.288-0.64-0.64-0.64h-9.76c-0.352 0-0.64 0.288-0.64 0.64v1.92c0 0.352 0.288 0.64 0.64 0.64z"></path>
</symbol>
<symbol id="icon-certificate-devider" viewBox="0 0 32 32">
<path fill="#1b63f0" style="fill: var(--color4, #1b63f0)" d="M27.135 25.648l-3.584-7.936c1.216-1.12 2.176-2.528 2.816-4.128 0.16-0.448-0.064-0.96-0.512-1.152s-0.96 0.064-1.152 0.512c-0.448 1.152-1.12 2.208-1.952 3.072l-2.432-5.408c0.384-0.704 0.576-1.472 0.576-2.304 0-2.368-1.664-4.32-3.872-4.8v-1.536c0-0.544-0.448-0.992-0.992-0.992s-0.992 0.448-0.992 0.992v1.536c-2.208 0.48-3.872 2.432-3.872 4.8 0 0.832 0.224 1.632 0.576 2.304l-2.432 5.408c-0.832-0.864-1.472-1.888-1.952-3.072-0.192-0.448-0.672-0.672-1.152-0.512-0.448 0.192-0.672 0.672-0.512 1.152 0.64 1.632 1.6 3.008 2.816 4.128l-3.584 7.936-0.128 4.288c0 0.416 0.224 0.8 0.608 0.992 0.128 0.064 0.288 0.096 0.416 0.096 0.256 0 0.512-0.096 0.704-0.288l3.104-2.944 3.392-7.52c0.96 0.256 1.952 0.416 2.976 0.416s2.016-0.16 2.976-0.416l3.392 7.52 3.104 2.944c0.192 0.192 0.448 0.288 0.704 0.288 0.128 0 0.288-0.032 0.416-0.096 0.384-0.16 0.64-0.544 0.608-0.992l-0.064-4.288zM14.431 12.912l-2.304 5.12c-0.512-0.224-0.992-0.512-1.472-0.832l2.304-5.088c0.448 0.352 0.928 0.608 1.472 0.8zM19.103 12.112l2.304 5.088c-0.448 0.32-0.96 0.608-1.472 0.832l-2.304-5.12c0.544-0.192 1.024-0.448 1.472-0.8zM16.031 5.168c1.728 0 3.136 1.408 3.136 3.136s-1.408 3.136-3.136 3.136c-1.728 0-3.136-1.408-3.136-3.136s1.408-3.136 3.136-3.136zM8.223 26.736l-1.6 1.504 0.064-2.176 3.264-7.232c0.48 0.32 0.96 0.576 1.472 0.8l-3.2 7.104zM16.031 18.896c-0.768 0-1.504-0.096-2.24-0.256l2.24-4.96 2.24 4.96c-0.736 0.16-1.472 0.256-2.24 0.256zM23.839 26.736l-3.2-7.072c0.512-0.224 0.992-0.512 1.472-0.8l3.264 7.2 0.064 2.176-1.6-1.504z"></path>
</symbol>
<symbol id="icon-certificate-microscope" viewBox="0 0 32 32">
<path fill="#1b63f0" style="fill: var(--color4, #1b63f0)" d="M6.208 30.87h21.984c0-0.928-4.32-1.696-9.856-1.792v-1.952c0.032 0 0.064 0 0.096 0 5.248-0.64 9.248-5.12 9.248-10.464 0-2.976-1.28-5.824-3.488-7.808-0.256-0.224-0.544-0.448-0.8-0.672l1.376-2.496c0.512-0.928 0.16-2.080-0.768-2.592l-3.136-1.728c-0.928-0.512-2.080-0.16-2.592 0.768l-6.144 11.296c-0.512 0.928-0.16 2.080 0.768 2.592l3.136 1.728c0.288 0.128 0.608 0.192 0.928 0.192 0.192 0 0.352-0.032 0.544-0.064 0.48-0.128 0.896-0.48 1.12-0.928l3.904-7.168c0.16 0.128 0.32 0.256 0.48 0.416 1.824 1.664 2.88 4.032 2.88 6.496 0 4.416-3.328 8.16-7.712 8.672-0.768 0.096-1.536 0.064-2.304-0.032-2.432-0.352-4.544-1.696-5.888-3.68h8.384c0.48 0 0.896-0.384 0.896-0.896s-0.384-0.896-0.864-0.896h-13.696c-0.48 0-0.896 0.384-0.896 0.896s0.384 0.896 0.896 0.896h3.232c1.568 2.912 4.384 4.928 7.712 5.44 0.032 0 0.096 0 0.128 0v2.016c-5.408 0.064-9.568 0.832-9.568 1.76zM17.088 16.118c-0.032 0.032-0.064 0.064-0.096 0.064s-0.064 0-0.096 0l-3.136-1.728c-0.064-0.032-0.096-0.128-0.064-0.192l6.112-11.232c0.032-0.064 0.128-0.096 0.192-0.064l3.136 1.728c0.064 0.032 0.096 0.128 0.064 0.192l-6.112 11.232z"></path>
</symbol>
<symbol id="icon-certificate-scroll" viewBox="0 0 32 32">
<path fill="#1b63f0" style="fill: var(--color4, #1b63f0)" d="M29.705 18.096h-3.584v-13.408c0-2.080-1.696-3.808-3.776-3.808h-0.032c-0.128 0-0.288 0-0.416 0h-15.456c-3.104 0-5.664 2.528-5.664 5.664v2.112c0 0.896 0.736 1.632 1.632 1.632h3.136v14.624c0 1.696 1.376 3.104 3.104 3.104h3.808v2.048c0 0.384 0.224 0.768 0.576 0.928 0.16 0.096 0.32 0.128 0.512 0.128s0.416-0.064 0.576-0.192l2.24-1.504 2.24 1.504c0.32 0.224 0.736 0.224 1.088 0.064 0.352-0.192 0.576-0.544 0.576-0.928v-2.080c0.064 0.032 0.16 0.032 0.224 0.032h7.392c0.128 0 0.224 0 0.32-0.032h0.064c0.064 0 0.16-0.032 0.256-0.032 0.032 0 0.064 0 0.064 0 0.032 0 0.064 0 0.064-0.032 0.064 0 0.096-0.032 0.16-0.032 0.032 0 0.096-0.032 0.128-0.032s0.064 0 0.064-0.032c0.096-0.032 0.192-0.064 0.256-0.096 0.032 0 0.064-0.032 0.064-0.032 0.032 0 0.032-0.032 0.064-0.032 0.096-0.032 0.16-0.096 0.256-0.128 0.064-0.032 0.16-0.096 0.224-0.16 0 0 0.032 0 0.032-0.032l0.064-0.064c0.064-0.064 0.128-0.096 0.192-0.16 0.096-0.096 0.224-0.192 0.288-0.32 0.064-0.064 0.16-0.192 0.224-0.32 0-0.032 0.032-0.032 0.032-0.064s0.032-0.032 0.032-0.064c0-0.032 0.032-0.032 0.032-0.064 0.032-0.064 0.064-0.096 0.096-0.16s0.064-0.128 0.096-0.192c0-0.032 0.032-0.064 0.032-0.096 0.064-0.192 0.128-0.384 0.16-0.576 0.032-0.224 0.064-0.448 0.064-0.704v-4.832c0.128-0.896-0.608-1.632-1.504-1.632zM2.537 6.512c0-2.144 1.76-3.904 3.904-3.904h12.32c-0.448 0.64-0.704 1.44-0.704 2.272v3.584h-15.52v-1.952zM16.329 23.76c-1.888 0-3.424-1.536-3.424-3.424s1.536-3.392 3.424-3.392c1.888 0 3.424 1.536 3.424 3.424s-1.536 3.392-3.424 3.392zM16.329 27.248l-2.144 1.408v-3.584c0.64 0.288 1.376 0.48 2.144 0.48s1.472-0.16 2.144-0.48v3.616l-2.144-1.44zM20.233 26.224v-2.464c0.8-0.896 1.28-2.080 1.28-3.392 0-2.848-2.304-5.184-5.184-5.184-2.848 0-5.184 2.304-5.184 5.184 0 1.28 0.48 2.464 1.28 3.392v2.432h-3.808c-0.736 0-1.344-0.608-1.344-1.344v-14.624h10.88c0.896 0 1.632-0.736 1.632-1.632v-3.68c0-1.184 0.928-2.208 2.112-2.272h0.416c1.12 0 2.048 0.928 2.048 2.048v19.808c0 0.608 0.16 1.216 0.448 1.728h-4.352c-0.096-0.032-0.16-0.032-0.224 0zM29.513 24.816c-0.032 0.096-0.064 0.224-0.096 0.32-0.032 0.064-0.064 0.096-0.064 0.16l-0.064 0.096c-0.032 0.032-0.064 0.096-0.096 0.128l-0.032 0.032c-0.032 0.032-0.064 0.096-0.128 0.128-0.032 0.032-0.064 0.064-0.128 0.096l-0.032 0.032c-0.096 0.064-0.192 0.128-0.288 0.16-0.032 0.032-0.064 0.032-0.096 0.032s-0.064 0.032-0.096 0.032l-0.064 0.032c-0.032 0-0.096 0.032-0.128 0.032h-0.032c-0.032 0-0.096 0.032-0.128 0.032h-0.064c-0.064 0-0.096 0-0.16 0-0.96 0-1.728-0.768-1.728-1.728v-4.544h3.424c0 0 0.032 4.864 0 4.96z"></path>
</symbol>
<symbol id="icon-chainlink" viewBox="0 0 32 32">
<path fill="none" stroke="#fff" style="stroke: var(--color2, #fff)" stroke-linejoin="round" stroke-linecap="round" stroke-miterlimit="4" stroke-width="2.0645" d="M13.935 13.419c0.443 0.593 1.009 1.083 1.658 1.438s1.368 0.566 2.106 0.619c0.738 0.053 1.479-0.054 2.172-0.312s1.323-0.663 1.846-1.187l3.097-3.097c0.94-0.973 1.46-2.277 1.449-3.63s-0.555-2.648-1.512-3.605c-0.957-0.957-2.251-1.5-3.605-1.511s-2.657 0.508-3.63 1.449l-1.775 1.765"></path>
<path fill="none" stroke="#fff" style="stroke: var(--color2, #fff)" stroke-linejoin="round" stroke-linecap="round" stroke-miterlimit="4" stroke-width="2.0645" d="M18.065 11.355c-0.443-0.593-1.009-1.083-1.658-1.438s-1.368-0.566-2.106-0.619c-0.738-0.053-1.479 0.054-2.173 0.312s-1.323 0.663-1.846 1.187l-3.097 3.097c-0.94 0.973-1.46 2.277-1.449 3.63s0.555 2.648 1.511 3.605c0.957 0.957 2.251 1.5 3.605 1.512s2.657-0.509 3.63-1.449l1.765-1.765"></path>
</symbol>
<symbol id="icon-circle" viewBox="0 0 32 32">
<path fill="#eaedf4" style="fill: var(--color5, #eaedf4)" d="M32 16c0 8.837-7.163 16-16 16s-16-7.163-16-16c0-8.837 7.163-16 16-16s16 7.163 16 16z"></path>
</symbol>
<symbol id="icon-clock" viewBox="0 0 32 32">
<path fill="none" stroke="#838383" style="stroke: var(--color3, #838383)" stroke-linejoin="round" stroke-linecap="round" stroke-miterlimit="4" stroke-width="2.4" d="M16 29.333c7.364 0 13.333-5.969 13.333-13.333s-5.97-13.333-13.333-13.333c-7.364 0-13.333 5.97-13.333 13.333s5.97 13.333 13.333 13.333z"></path>
<path fill="none" stroke="#838383" style="stroke: var(--color3, #838383)" stroke-linejoin="round" stroke-linecap="round" stroke-miterlimit="4" stroke-width="2.4" d="M16 8v8l5.333 2.667"></path>
</symbol>
<symbol id="icon-direct-speech" viewBox="0 0 32 32">
<path fill="none" stroke="#fff" style="stroke: var(--color2, #fff)" stroke-linejoin="round" stroke-linecap="round" stroke-miterlimit="4" stroke-width="2.6667" d="M28 20c0 0.707-0.281 1.385-0.781 1.886s-1.178 0.781-1.886 0.781h-16l-5.333 5.333v-21.333c0-0.707 0.281-1.386 0.781-1.886s1.178-0.781 1.886-0.781h18.667c0.707 0 1.385 0.281 1.886 0.781s0.781 1.178 0.781 1.886v13.333z"></path>
</symbol>
<symbol id="icon-dot-darkblue" viewBox="0 0 32 32">
<path fill="#1b63f0" style="fill: var(--color4, #1b63f0)" d="M30.545 16.291c0 8.033-6.512 14.545-14.545 14.545s-14.545-6.512-14.545-14.545c0-8.033 6.512-14.545 14.545-14.545s14.545 6.512 14.545 14.545z"></path>
</symbol>
<symbol id="icon-dot-lightblue" viewBox="0 0 32 32">
<path fill="#bad1ff" style="fill: var(--color6, #bad1ff)" d="M30.545 16.291c0 8.033-6.512 14.545-14.545 14.545s-14.545-6.512-14.545-14.545c0-8.033 6.512-14.545 14.545-14.545s14.545 6.512 14.545 14.545z"></path>
</symbol>
<symbol id="icon-dots-5-in-a-row" viewBox="0 0 32 32">
<path fill="#bad1ff" style="fill: var(--color6, #bad1ff)" d="M4.571 16.046c0 1.262-1.023 2.286-2.286 2.286s-2.286-1.023-2.286-2.286c0-1.262 1.023-2.286 2.286-2.286s2.286 1.023 2.286 2.286z"></path>
<path fill="#bad1ff" style="fill: var(--color6, #bad1ff)" d="M11.429 16.046c0 1.262-1.023 2.286-2.286 2.286s-2.286-1.023-2.286-2.286c0-1.262 1.023-2.286 2.286-2.286s2.286 1.023 2.286 2.286z"></path>
<path fill="#1b63f0" style="fill: var(--color4, #1b63f0)" d="M18.286 16.046c0 1.262-1.023 2.286-2.286 2.286s-2.286-1.023-2.286-2.286c0-1.262 1.023-2.286 2.286-2.286s2.286 1.023 2.286 2.286z"></path>
<path fill="#bad1ff" style="fill: var(--color6, #bad1ff)" d="M25.143 16.046c0 1.262-1.023 2.286-2.286 2.286s-2.286-1.023-2.286-2.286c0-1.262 1.023-2.286 2.286-2.286s2.286 1.023 2.286 2.286z"></path>
<path fill="#bad1ff" style="fill: var(--color6, #bad1ff)" d="M32 16.046c0 1.262-1.023 2.286-2.286 2.286s-2.286-1.023-2.286-2.286c0-1.262 1.023-2.286 2.286-2.286s2.286 1.023 2.286 2.286z"></path>
</symbol>
<symbol id="icon-facebook" viewBox="0 0 32 32">
<path stroke-linejoin="round" stroke-linecap="round" stroke-miterlimit="4" stroke-width="2.6667" d="M24 2.667h-4c-1.768 0-3.464 0.702-4.714 1.953s-1.953 2.946-1.953 4.714v4h-4v5.333h4v10.667h5.333v-10.667h4l1.333-5.333h-5.333v-4c0-0.354 0.141-0.693 0.391-0.943s0.589-0.391 0.943-0.391h4v-5.333z"></path>
</symbol>
<symbol id="icon-green-background-01" viewBox="0 0 32 32">
<path fill="#42ae7f" style="fill: var(--color7, #42ae7f)" d="M0 7.568v-4.977h32v26.817c-21.758-9.049-32-7.486-32-21.841z"></path>
</symbol>
<symbol id="icon-green-background-02" viewBox="0 0 32 32">
<path fill="#64be97" style="fill: var(--color8, #64be97)" d="M0 7.135v-5.232h32v28.195c-21.758-9.514-32-7.87-32-22.962z"></path>
</symbol>
<symbol id="icon-green-circle" viewBox="0 0 32 32">
<path fill="#a8e2c7" style="fill: var(--color9, #a8e2c7)" opacity="0.4" d="M31.355 13.502c-2.312-12.836-12.35-14.905-19.65-12.776-7.3 2.19-10.676 7.263-11.316 13.932-0.852 8.882 4.745 15.878 13.81 17.156s19.468-5.475 17.156-18.312z"></path>
</symbol>
<symbol id="icon-green-messy-spot" viewBox="0 0 32 32">
<path fill="#d6fae7" style="fill: var(--color10, #d6fae7)" d="M11.483 28.144c5.985 0 20.478-1.375 20.478-6.107 0-2.768-2.935-4.592-5.539-5.374-2.829-0.85-8.996-1.547-8.996-2.768s2.239-9.445-5.17-10.015c-7.41-0.57-12.58 6.595-12.702 12.784s5.944 11.481 11.929 11.481z"></path>
</symbol>
<symbol id="icon-instagram" viewBox="0 0 32 32">
<path stroke-linejoin="round" stroke-linecap="round" stroke-miterlimit="4" stroke-width="2.6667" d="M22.667 2.667h-13.333c-3.682 0-6.667 2.985-6.667 6.667v13.333c0 3.682 2.985 6.667 6.667 6.667h13.333c3.682 0 6.667-2.985 6.667-6.667v-13.333c0-3.682-2.985-6.667-6.667-6.667z"></path>
<path stroke-linejoin="round" stroke-linecap="round" stroke-miterlimit="4" stroke-width="2.6667" d="M21.333 15.16c0.165 1.11-0.025 2.243-0.542 3.239s-1.334 1.803-2.336 2.307c-1.002 0.504-2.137 0.68-3.245 0.502s-2.131-0.701-2.924-1.494c-0.793-0.793-1.316-1.816-1.494-2.924s-0.003-2.243 0.502-3.245c0.504-1.002 1.312-1.819 2.308-2.336s2.129-0.706 3.239-0.542c1.132 0.168 2.18 0.695 2.989 1.504s1.337 1.857 1.504 2.989z"></path>
<path stroke-linejoin="round" stroke-linecap="round" stroke-miterlimit="4" stroke-width="2.6667" d="M23.333 8.667h0.013"></path>
</symbol>
<symbol id="icon-logo-brico" viewBox="0 0 32 32">
<path d="M0 8.967h31.919v14.066h-31.919v-14.066z"></path>
</symbol>
<symbol id="icon-logo-nice" viewBox="0 0 32 32">
<path d="M0 7.423h32v17.155h-32v-17.155z"></path>
</symbol>
<symbol id="icon-logo-praxis" viewBox="0 0 32 32">
<path d="M0.239 9.786h31.546v12.427h-31.546v-12.427z"></path>
</symbol>
<symbol id="icon-logo-swishfund" viewBox="0 0 32 32">
<path d="M0 9.837h32v12.326h-32v-12.326z"></path>
</symbol>
<symbol id="icon-logo-union" viewBox="0 0 32 32">
<path fill="#1b63f0" style="fill: var(--color4, #1b63f0)" d="M7.111 11.164c2.671 0 4.836 2.165 4.836 4.836 0 2.669-2.162 4.833-4.831 4.836-0.002 0-0.003 0-0.005 0h-0.002c-2.67-0.001-4.834-2.166-4.834-4.836s2.165-4.836 4.836-4.836zM12.325 20.836c1.177-1.269 1.897-2.968 1.897-4.836 0-3.927-3.184-7.111-7.111-7.111s-7.111 3.184-7.111 7.111c0 3.927 3.184 7.111 7.111 7.111 0.002 0 0.004 0 0.006 0h17.245c0.002 0 0.004 0 0.006 0 3.927 0 7.111-3.184 7.111-7.111s-3.184-7.111-7.111-7.111c-3.927 0-7.111 3.184-7.111 7.111 0 1.867 0.72 3.567 1.897 4.836h-6.829zM24.369 20.836h-0.006c-2.668-0.003-4.831-2.167-4.831-4.836 0-2.671 2.165-4.836 4.836-4.836s4.836 2.165 4.836 4.836c0 2.67-2.164 4.835-4.834 4.836z"></path>
</symbol>
<symbol id="icon-logo-youfone" viewBox="0 0 32 32">
<path d="M0 10.632h32v10.735h-32v-10.735z"></path>
</symbol>
<symbol id="icon-map" viewBox="0 0 32 32">
<path fill="none" stroke="#838383" style="stroke: var(--color3, #838383)" stroke-linejoin="round" stroke-linecap="round" stroke-miterlimit="4" stroke-width="2.4" d="M28 13.333c0 9.333-12 17.333-12 17.333s-12-8-12-17.333c0-3.183 1.264-6.235 3.515-8.485s5.303-3.515 8.485-3.515c3.183 0 6.235 1.264 8.485 3.515s3.515 5.303 3.515 8.485z"></path>
<path fill="none" stroke="#838383" style="stroke: var(--color3, #838383)" stroke-linejoin="round" stroke-linecap="round" stroke-miterlimit="4" stroke-width="2.4" d="M16 17.333c2.209 0 4-1.791 4-4s-1.791-4-4-4c-2.209 0-4 1.791-4 4s1.791 4 4 4z"></path>
</symbol>
<symbol id="icon-book" viewBox="0 0 32 32">
<path fill="none" stroke="#fff" style="stroke: var(--color2, #fff)" stroke-linejoin="round" stroke-linecap="round" stroke-miterlimit="4" stroke-width="2.6667" d="M2.667 4h8c1.415 0 2.771 0.562 3.771 1.562s1.562 2.357 1.562 3.771v18.667c0-1.061-0.421-2.078-1.172-2.828s-1.768-1.172-2.828-1.172h-9.333v-20z"></path>
<path fill="none" stroke="#fff" style="stroke: var(--color2, #fff)" stroke-linejoin="round" stroke-linecap="round" stroke-miterlimit="4" stroke-width="2.6667" d="M29.333 4h-8c-1.415 0-2.771 0.562-3.771 1.562s-1.562 2.357-1.562 3.771v18.667c0-1.061 0.421-2.078 1.172-2.828s1.768-1.172 2.828-1.172h9.333v-20z"></path>
</symbol>
<symbol id="icon-pentool" viewBox="0 0 32 32">
<path fill="none" stroke="#fff" style="stroke: var(--color2, #fff)" stroke-linejoin="round" stroke-linecap="round" stroke-miterlimit="4" stroke-width="2.6667" d="M16 25.333l9.333-9.333 4 4-9.333 9.333-4-4z"></path>
<path fill="none" stroke="#fff" style="stroke: var(--color2, #fff)" stroke-linejoin="round" stroke-linecap="round" stroke-miterlimit="4" stroke-width="2.6667" d="M24 17.333l-2-10-19.333-4.667 4.667 19.333 10 2 6.667-6.667z"></path>
<path fill="none" stroke="#fff" style="stroke: var(--color2, #fff)" stroke-linejoin="round" stroke-linecap="round" stroke-miterlimit="4" stroke-width="2.6667" d="M2.667 2.667l10.115 10.115"></path>
<path fill="none" stroke="#fff" style="stroke: var(--color2, #fff)" stroke-linejoin="round" stroke-linecap="round" stroke-miterlimit="4" stroke-width="2.6667" d="M14.667 17.333c1.473 0 2.667-1.194 2.667-2.667s-1.194-2.667-2.667-2.667c-1.473 0-2.667 1.194-2.667 2.667s1.194 2.667 2.667 2.667z"></path>
</symbol>
<symbol id="icon-quotemark" viewBox="0 0 32 32">
<path fill="#3f4c9a" style="fill: var(--color11, #3f4c9a)" d="M10.338 15.024c1.231 0.542 2.191 1.354 2.88 2.437s1.034 2.363 1.034 3.84c0 2.117-0.665 3.84-1.994 5.169-1.329 1.28-3.028 1.92-5.095 1.92s-3.791-0.665-5.169-1.994c-1.329-1.329-1.994-3.028-1.994-5.095 0-0.985 0.123-1.969 0.369-2.954s0.788-2.462 1.625-4.431l4.283-10.634h7.311l-3.249 11.742zM27.766 15.024c1.231 0.542 2.191 1.354 2.88 2.437s1.034 2.363 1.034 3.84c0 2.117-0.665 3.84-1.994 5.169-1.329 1.28-3.028 1.92-5.095 1.92s-3.791-0.665-5.169-1.994c-1.329-1.329-1.994-3.028-1.994-5.095 0-0.985 0.123-1.969 0.369-2.954s0.788-2.462 1.625-4.431l4.283-10.634h7.311l-3.249 11.742z"></path>
</symbol>
<symbol id="icon-star" viewBox="0 0 32 32">
<path fill="#fdd22f" style="fill: var(--color12, #fdd22f)" d="M25.61 28.754c0.21 1.318-1.19 2.298-2.357 1.651l-6.274-3.483c-0.483-0.268-1.070-0.268-1.553 0l-6.274 3.483c-1.166 0.648-2.567-0.333-2.357-1.651l1.179-7.402c0.080-0.501-0.083-1.010-0.437-1.372l-5.35-5.458c-0.913-0.932-0.388-2.505 0.902-2.702l7.196-1.095c0.533-0.081 0.989-0.425 1.214-0.915l3.046-6.641c0.571-1.244 2.338-1.244 2.909 0l3.046 6.641c0.225 0.49 0.681 0.834 1.214 0.915l7.292 1.11c1.271 0.193 1.806 1.731 0.93 2.672l-5.1 5.477c-0.336 0.36-0.487 0.856-0.409 1.342l1.183 7.427z"></path>
</symbol>
<symbol id="icon-slide-left" viewBox="0 0 32 32">
<path fill="#fff" style="fill: var(--color2, #fff)" d="M16 5.479c4.842 0 8.767 3.925 8.767 8.767s-3.925 8.767-8.767 8.767c-4.842 0-8.767-3.925-8.767-8.767s3.925-8.767 8.767-8.767z"></path>
<path fill="none" stroke="#64be97" style="stroke: var(--color8, #64be97)" stroke-linejoin="round" stroke-linecap="round" stroke-miterlimit="4" stroke-width="0.8767" d="M17.315 16.877l-2.63-2.63 2.63-2.63"></path>
</symbol>
<symbol id="icon-slide-right" viewBox="0 0 32 32">
<path fill="#fff" style="fill: var(--color2, #fff)" d="M16 5.479c4.842 0 8.767 3.925 8.767 8.767s-3.925 8.767-8.767 8.767c-4.842 0-8.767-3.925-8.767-8.767s3.925-8.767 8.767-8.767z"></path>
<path fill="none" stroke="#64be97" style="stroke: var(--color8, #64be97)" stroke-linejoin="round" stroke-linecap="round" stroke-miterlimit="4" stroke-width="0.8767" d="M14.685 16.877l2.63-2.63-2.63-2.63"></path>
</symbol>
<symbol id="icon-square" viewBox="0 0 32 32">
<path fill="#ffefef" style="fill: var(--color13, #ffefef)" d="M6.4 0h19.2c3.535 0 6.4 2.865 6.4 6.4v19.2c0 3.535-2.865 6.4-6.4 6.4h-19.2c-3.535 0-6.4-2.865-6.4-6.4v-19.2c0-3.535 2.865-6.4 6.4-6.4z"></path>
</symbol>
<symbol id="icon-student" viewBox="0 0 32 32">
<path d="M0 0h32v32h-32v-32z"></path>
</symbol>
<symbol id="icon-twitter" viewBox="0 0 32 32">
<path stroke-linejoin="round" stroke-linecap="round" stroke-miterlimit="4" stroke-width="2.6667" d="M30.667 4c-1.277 0.901-2.691 1.589-4.187 2.040-0.803-0.923-1.87-1.578-3.057-1.875s-2.437-0.222-3.58 0.214c-1.143 0.436-2.125 1.213-2.812 2.226s-1.047 2.212-1.031 3.435v1.333c-2.343 0.061-4.665-0.459-6.759-1.513s-3.894-2.609-5.241-4.527c0 0-5.333 12 6.667 17.333-2.746 1.864-6.017 2.799-9.333 2.667 12 6.667 26.667 0 26.667-15.333-0.001-0.371-0.037-0.742-0.107-1.107 1.361-1.342 2.321-3.036 2.773-4.893z"></path>
</symbol>
<symbol id="icon-youtube" viewBox="0 0 32 32">
<path stroke-linejoin="round" stroke-linecap="round" stroke-miterlimit="4" stroke-width="2.6667" d="M30.053 8.56c-0.158-0.633-0.481-1.213-0.935-1.681s-1.024-0.808-1.651-0.986c-2.293-0.56-11.467-0.56-11.467-0.56s-9.173 0-11.467 0.613c-0.628 0.178-1.197 0.518-1.652 0.986s-0.777 1.048-0.935 1.681c-0.42 2.327-0.625 4.688-0.613 7.053-0.015 2.383 0.19 4.762 0.613 7.107 0.175 0.613 0.504 1.171 0.958 1.619s1.014 0.772 1.629 0.941c2.293 0.613 11.467 0.613 11.467 0.613s9.173 0 11.467-0.613c0.628-0.178 1.197-0.518 1.651-0.986s0.777-1.048 0.935-1.681c0.417-2.31 0.622-4.653 0.613-7 0.015-2.383-0.19-4.762-0.613-7.107v0z"></path>
<path stroke-linejoin="round" stroke-linecap="round" stroke-miterlimit="4" stroke-width="2.6667" d="M13 20.027l7.667-4.36-7.667-4.36v8.72z"></path>
</symbol>
</defs>
</svg>
