<svg width="56" height="56" viewBox="0 0 56 56" fill="none" xmlns="http://www.w3.org/2000/svg">
<path d="M47.4856 44.884L41.2136 30.996C43.3416 29.036 45.0216 26.572 46.1416 23.772C46.4216 22.988 46.0296 22.092 45.2456 21.756C44.4616 21.42 43.5656 21.868 43.2296 22.652C42.4456 24.668 41.2696 26.516 39.8136 28.028L35.5576 18.564C36.2296 17.332 36.5656 15.988 36.5656 14.532C36.5656 10.388 33.6536 6.97201 29.7896 6.13201V3.44401C29.7896 2.49201 29.0056 1.70801 28.0536 1.70801C27.1016 1.70801 26.3176 2.49201 26.3176 3.44401V6.13201C22.4536 6.97201 19.5416 10.388 19.5416 14.532C19.5416 15.988 19.9336 17.388 20.5496 18.564L16.2936 28.028C14.8376 26.516 13.7176 24.724 12.8776 22.652C12.5416 21.868 11.7016 21.476 10.8616 21.756C10.0776 22.092 9.68564 22.932 9.96564 23.772C11.0856 26.628 12.7656 29.036 14.8936 30.996L8.62164 44.884L8.39764 52.388C8.39764 53.116 8.78964 53.788 9.46164 54.124C9.68564 54.236 9.96564 54.292 10.1896 54.292C10.6376 54.292 11.0856 54.124 11.4216 53.788L16.8536 48.636L22.7896 35.476C24.4696 35.924 26.2056 36.204 27.9976 36.204C29.7896 36.204 31.5256 35.924 33.2056 35.476L39.1416 48.636L44.5736 53.788C44.9096 54.124 45.3576 54.292 45.8056 54.292C46.0296 54.292 46.3096 54.236 46.5336 54.124C47.2056 53.844 47.6536 53.172 47.5976 52.388L47.4856 44.884ZM25.2536 22.596L21.2216 31.556C20.3256 31.164 19.4856 30.66 18.6456 30.1L22.6776 21.196C23.4616 21.812 24.3016 22.26 25.2536 22.596ZM33.4296 21.196L37.4616 30.1C36.6776 30.66 35.7816 31.164 34.8856 31.556L30.8536 22.596C31.8056 22.26 32.6456 21.812 33.4296 21.196ZM28.0536 9.04401C31.0776 9.04401 33.5416 11.508 33.5416 14.532C33.5416 17.556 31.0776 20.02 28.0536 20.02C25.0296 20.02 22.5656 17.556 22.5656 14.532C22.5656 11.508 25.0296 9.04401 28.0536 9.04401ZM14.3896 46.788L11.5896 49.42L11.7016 45.612L17.4136 32.956C18.2536 33.516 19.0936 33.964 19.9896 34.356L14.3896 46.788ZM28.0536 33.068C26.7096 33.068 25.4216 32.9 24.1336 32.62L28.0536 23.94L31.9736 32.62C30.6856 32.9 29.3976 33.068 28.0536 33.068ZM41.7176 46.788L36.1176 34.412C37.0136 34.02 37.8536 33.516 38.6936 33.012L44.4056 45.612L44.5176 49.42L41.7176 46.788Z" fill="#1B63F0"/>
</svg>
