<svg width="56" height="56" viewBox="0 0 56 56" fill="none" xmlns="http://www.w3.org/2000/svg">
<path d="M10.864 54.0222H49.336C49.336 52.3982 41.776 51.0542 32.088 50.8862V47.4702C32.144 47.4702 32.2 47.4702 32.256 47.4702C41.44 46.3502 48.44 38.5102 48.44 29.1582C48.44 23.9502 46.2 18.9662 42.336 15.4942C41.888 15.1022 41.384 14.7102 40.936 14.3182L43.344 9.9502C44.24 8.3262 43.624 6.3102 42 5.4142L36.512 2.3902C34.888 1.4942 32.872 2.1102 31.976 3.7342L21.224 23.5022C20.328 25.1262 20.944 27.1422 22.568 28.0382L28.056 31.0622C28.56 31.2862 29.12 31.3982 29.68 31.3982C30.016 31.3982 30.296 31.3422 30.632 31.2862C31.472 31.0622 32.2 30.4462 32.592 29.6622L39.424 17.1182C39.704 17.3422 39.984 17.5662 40.264 17.8462C43.456 20.7582 45.304 24.9022 45.304 29.2142C45.304 36.9422 39.48 43.4942 31.808 44.3902C30.464 44.5582 29.12 44.5022 27.776 44.3342C23.52 43.7182 19.824 41.3662 17.472 37.8942H32.144C32.984 37.8942 33.712 37.2222 33.712 36.3262C33.712 35.4302 33.04 34.7582 32.2 34.7582H8.232C7.392 34.7582 6.664 35.4302 6.664 36.3262C6.664 37.2222 7.336 37.8942 8.232 37.8942H13.888C16.632 42.9902 21.56 46.5182 27.384 47.4142C27.44 47.4142 27.552 47.4142 27.608 47.4142V50.9422C18.144 51.0542 10.864 52.3982 10.864 54.0222ZM29.904 28.2062C29.848 28.2622 29.792 28.3182 29.736 28.3182C29.68 28.3182 29.624 28.3182 29.568 28.3182L24.08 25.2942C23.968 25.2382 23.912 25.0702 23.968 24.9582L34.664 5.3022C34.72 5.1902 34.888 5.1342 35 5.1902L40.488 8.2142C40.6 8.2702 40.656 8.4382 40.6 8.5502L29.904 28.2062Z" fill="#1B63F0"/>
</svg>
