<svg width="56" height="56" viewBox="0 0 56 56" fill="none" xmlns="http://www.w3.org/2000/svg">
<path d="M51.9833 31.668H45.7113V8.20404C45.7113 4.56404 42.7433 1.54004 39.1033 1.54004H39.0473C38.8233 1.54004 38.5433 1.54004 38.3193 1.54004H33.1113H11.2713C5.83928 1.54004 1.35928 5.96404 1.35928 11.452V15.148C1.35928 16.716 2.64728 18.004 4.21528 18.004H9.70328V43.596C9.70328 46.564 12.1113 49.028 15.1353 49.028H21.7993V52.612C21.7993 53.284 22.1913 53.9561 22.8073 54.236C23.0873 54.404 23.3673 54.46 23.7033 54.46C24.0393 54.46 24.4313 54.3481 24.7113 54.1241L28.6313 51.492L32.5513 54.1241C33.1113 54.5161 33.8393 54.516 34.4553 54.236C35.0713 53.9001 35.4633 53.284 35.4633 52.612V48.972C35.5753 49.028 35.7433 49.028 35.8553 49.028H48.7913C49.0153 49.028 49.1833 49.028 49.3513 48.972H49.4073H49.4633C49.5753 48.972 49.7433 48.916 49.9113 48.916C49.9673 48.916 50.0233 48.916 50.0233 48.916C50.0793 48.916 50.1353 48.916 50.1353 48.8601C50.2473 48.8601 50.3033 48.8041 50.4153 48.8041C50.4713 48.8041 50.5833 48.748 50.6393 48.748C50.6953 48.748 50.7513 48.748 50.7513 48.692C50.9193 48.636 51.0873 48.5801 51.1993 48.5241C51.2553 48.5241 51.3113 48.468 51.3113 48.468C51.3673 48.468 51.3673 48.412 51.4233 48.412C51.5913 48.356 51.7033 48.244 51.8713 48.188C51.9833 48.132 52.1513 48.02 52.2633 47.908C52.2633 47.908 52.3193 47.908 52.3193 47.852L52.3753 47.796L52.4313 47.74C52.5433 47.628 52.6553 47.572 52.7673 47.46C52.9353 47.292 53.1593 47.1241 53.2713 46.9C53.3833 46.788 53.5513 46.564 53.6633 46.34C53.6633 46.284 53.7193 46.284 53.7193 46.228C53.7193 46.172 53.7753 46.172 53.7753 46.116C53.7753 46.06 53.8313 46.0601 53.8313 46.0041C53.8873 45.892 53.9433 45.836 53.9993 45.724C54.0553 45.612 54.1113 45.5 54.1673 45.388C54.1673 45.332 54.2233 45.276 54.2233 45.22C54.3353 44.884 54.4473 44.548 54.5033 44.212C54.5593 43.82 54.6153 43.428 54.6153 42.98V34.524C54.8393 32.956 53.5513 31.668 51.9833 31.668ZM4.43928 11.396C4.43928 7.64404 7.51928 4.56404 11.2713 4.56404H32.8313C32.0473 5.68404 31.5993 7.08404 31.5993 8.54004V14.812H4.43928V11.396ZM28.5753 41.58C25.2713 41.58 22.5833 38.892 22.5833 35.588C22.5833 32.284 25.2713 29.652 28.5753 29.652C31.8793 29.652 34.5673 32.34 34.5673 35.644C34.5673 38.948 31.8793 41.58 28.5753 41.58ZM28.5753 47.6841L24.8233 50.148V43.876C25.9433 44.38 27.2313 44.716 28.5753 44.716C29.9193 44.716 31.1513 44.436 32.3273 43.876V50.2041L28.5753 47.6841ZM35.4073 45.892V41.58C36.8073 40.012 37.6473 37.94 37.6473 35.644C37.6473 30.66 33.6153 26.572 28.5753 26.572C23.5913 26.572 19.5033 30.604 19.5033 35.644C19.5033 37.884 20.3433 39.956 21.7433 41.58V45.836H15.0793C13.7913 45.836 12.7273 44.772 12.7273 43.4841V17.892H31.7673C33.3353 17.892 34.6233 16.604 34.6233 15.036V8.59604C34.6233 6.52404 36.2473 4.73204 38.3193 4.62004H39.0473C41.0073 4.62004 42.6313 6.24404 42.6313 8.20404V42.868C42.6313 43.932 42.9113 44.996 43.4153 45.892H35.7993C35.6313 45.836 35.5193 45.836 35.4073 45.892ZM51.6473 43.428C51.5913 43.596 51.5353 43.82 51.4793 43.988C51.4233 44.1 51.3673 44.156 51.3673 44.268L51.2553 44.436C51.1993 44.492 51.1433 44.604 51.0873 44.66L51.0313 44.716C50.9753 44.772 50.9193 44.884 50.8073 44.94C50.7513 44.996 50.6953 45.052 50.5833 45.108L50.5273 45.1641C50.3593 45.2761 50.1913 45.3881 50.0233 45.444C49.9673 45.5 49.9113 45.5 49.8553 45.5C49.7993 45.5 49.7433 45.556 49.6873 45.556L49.5753 45.612C49.5193 45.612 49.4073 45.668 49.3513 45.668H49.2953C49.2393 45.668 49.1273 45.724 49.0713 45.724H48.9593C48.8473 45.724 48.7913 45.724 48.6793 45.724C46.9993 45.724 45.6553 44.38 45.6553 42.7V34.748H51.6473C51.6473 34.748 51.7033 43.26 51.6473 43.428Z" fill="#1B63F0"/>
</svg>
